<?xml version="1.0" encoding="utf-8" standalone="no"?>
<!DOCTYPE svg PUBLIC "-//W3C//DTD SVG 1.1//EN"
  "http://www.w3.org/Graphics/SVG/1.1/DTD/svg11.dtd">
<svg height="432pt" version="1.1" viewBox="0 0 288 432" width="288pt" xmlns="http://www.w3.org/2000/svg" xmlns:xlink="http://www.w3.org/1999/xlink">
 <metadata>
  <rdf:RDF xmlns:cc="http://creativecommons.org/ns#" xmlns:dc="http://purl.org/dc/elements/1.1/" xmlns:rdf="http://www.w3.org/1999/02/22-rdf-syntax-ns#">
   <cc:Work>
    <dc:type rdf:resource="http://purl.org/dc/dcmitype/StillImage"/>
    <dc:date>2022-12-10T23:07:18.196837</dc:date>
    <dc:format>image/svg+xml</dc:format>
    <dc:creator>
     <cc:Agent>
      <dc:title>Matplotlib v3.4.3, https://matplotlib.org/</dc:title>
     </cc:Agent>
    </dc:creator>
   </cc:Work>
  </rdf:RDF>
 </metadata>
 <defs>
  <style type="text/css">*{stroke-linecap:butt;stroke-linejoin:round;}</style>
 </defs>
 <g id="figure_1">
  <g id="patch_1">
   <path d="M 0 432 
L 288 432 
L 288 0 
L 0 0 
z
" style="fill:none;"/>
  </g>
  <g id="axes_1">
   <g id="patch_2">
    <path d="M 36 378 
L 259.2 378 
L 259.2 51.84 
L 36 51.84 
z
" style="fill:#ffffff;"/>
   </g>
   <g id="matplotlib.axis_1">
    <g id="xtick_1">
     <g id="line2d_1">
      <defs>
       <path d="M 0 0 
L 0 3.5 
" id="m45edd724f8" style="stroke:#000000;stroke-width:0.8;"/>
      </defs>
      <g>
       <use style="stroke:#000000;stroke-width:0.8;" x="46.145455" xlink:href="#m45edd724f8" y="378"/>
      </g>
     </g>
     <g id="text_1">
      <!-- 0.0 -->
      <g transform="translate(38.193892 392.598437)scale(0.1 -0.1)">
       <defs>
        <path d="M 2034 4250 
Q 1547 4250 1301 3770 
Q 1056 3291 1056 2328 
Q 1056 1369 1301 889 
Q 1547 409 2034 409 
Q 2525 409 2770 889 
Q 3016 1369 3016 2328 
Q 3016 3291 2770 3770 
Q 2525 4250 2034 4250 
z
M 2034 4750 
Q 2819 4750 3233 4129 
Q 3647 3509 3647 2328 
Q 3647 1150 3233 529 
Q 2819 -91 2034 -91 
Q 1250 -91 836 529 
Q 422 1150 422 2328 
Q 422 3509 836 4129 
Q 1250 4750 2034 4750 
z
" id="DejaVuSans-30" transform="scale(0.015625)"/>
        <path d="M 684 794 
L 1344 794 
L 1344 0 
L 684 0 
L 684 794 
z
" id="DejaVuSans-2e" transform="scale(0.015625)"/>
       </defs>
       <use xlink:href="#DejaVuSans-30"/>
       <use x="63.623047" xlink:href="#DejaVuSans-2e"/>
       <use x="95.410156" xlink:href="#DejaVuSans-30"/>
      </g>
     </g>
    </g>
    <g id="xtick_2">
     <g id="line2d_2">
      <g>
       <use style="stroke:#000000;stroke-width:0.8;" x="86.727273" xlink:href="#m45edd724f8" y="378"/>
      </g>
     </g>
     <g id="text_2">
      <!-- 0.2 -->
      <g transform="translate(78.77571 392.598437)scale(0.1 -0.1)">
       <defs>
        <path d="M 1228 531 
L 3431 531 
L 3431 0 
L 469 0 
L 469 531 
Q 828 903 1448 1529 
Q 2069 2156 2228 2338 
Q 2531 2678 2651 2914 
Q 2772 3150 2772 3378 
Q 2772 3750 2511 3984 
Q 2250 4219 1831 4219 
Q 1534 4219 1204 4116 
Q 875 4013 500 3803 
L 500 4441 
Q 881 4594 1212 4672 
Q 1544 4750 1819 4750 
Q 2544 4750 2975 4387 
Q 3406 4025 3406 3419 
Q 3406 3131 3298 2873 
Q 3191 2616 2906 2266 
Q 2828 2175 2409 1742 
Q 1991 1309 1228 531 
z
" id="DejaVuSans-32" transform="scale(0.015625)"/>
       </defs>
       <use xlink:href="#DejaVuSans-30"/>
       <use x="63.623047" xlink:href="#DejaVuSans-2e"/>
       <use x="95.410156" xlink:href="#DejaVuSans-32"/>
      </g>
     </g>
    </g>
    <g id="xtick_3">
     <g id="line2d_3">
      <g>
       <use style="stroke:#000000;stroke-width:0.8;" x="127.309091" xlink:href="#m45edd724f8" y="378"/>
      </g>
     </g>
     <g id="text_3">
      <!-- 0.4 -->
      <g transform="translate(119.357528 392.598437)scale(0.1 -0.1)">
       <defs>
        <path d="M 2419 4116 
L 825 1625 
L 2419 1625 
L 2419 4116 
z
M 2253 4666 
L 3047 4666 
L 3047 1625 
L 3713 1625 
L 3713 1100 
L 3047 1100 
L 3047 0 
L 2419 0 
L 2419 1100 
L 313 1100 
L 313 1709 
L 2253 4666 
z
" id="DejaVuSans-34" transform="scale(0.015625)"/>
       </defs>
       <use xlink:href="#DejaVuSans-30"/>
       <use x="63.623047" xlink:href="#DejaVuSans-2e"/>
       <use x="95.410156" xlink:href="#DejaVuSans-34"/>
      </g>
     </g>
    </g>
    <g id="xtick_4">
     <g id="line2d_4">
      <g>
       <use style="stroke:#000000;stroke-width:0.8;" x="167.890909" xlink:href="#m45edd724f8" y="378"/>
      </g>
     </g>
     <g id="text_4">
      <!-- 0.6 -->
      <g transform="translate(159.939347 392.598437)scale(0.1 -0.1)">
       <defs>
        <path d="M 2113 2584 
Q 1688 2584 1439 2293 
Q 1191 2003 1191 1497 
Q 1191 994 1439 701 
Q 1688 409 2113 409 
Q 2538 409 2786 701 
Q 3034 994 3034 1497 
Q 3034 2003 2786 2293 
Q 2538 2584 2113 2584 
z
M 3366 4563 
L 3366 3988 
Q 3128 4100 2886 4159 
Q 2644 4219 2406 4219 
Q 1781 4219 1451 3797 
Q 1122 3375 1075 2522 
Q 1259 2794 1537 2939 
Q 1816 3084 2150 3084 
Q 2853 3084 3261 2657 
Q 3669 2231 3669 1497 
Q 3669 778 3244 343 
Q 2819 -91 2113 -91 
Q 1303 -91 875 529 
Q 447 1150 447 2328 
Q 447 3434 972 4092 
Q 1497 4750 2381 4750 
Q 2619 4750 2861 4703 
Q 3103 4656 3366 4563 
z
" id="DejaVuSans-36" transform="scale(0.015625)"/>
       </defs>
       <use xlink:href="#DejaVuSans-30"/>
       <use x="63.623047" xlink:href="#DejaVuSans-2e"/>
       <use x="95.410156" xlink:href="#DejaVuSans-36"/>
      </g>
     </g>
    </g>
    <g id="xtick_5">
     <g id="line2d_5">
      <g>
       <use style="stroke:#000000;stroke-width:0.8;" x="208.472727" xlink:href="#m45edd724f8" y="378"/>
      </g>
     </g>
     <g id="text_5">
      <!-- 0.8 -->
      <g transform="translate(200.521165 392.598437)scale(0.1 -0.1)">
       <defs>
        <path d="M 2034 2216 
Q 1584 2216 1326 1975 
Q 1069 1734 1069 1313 
Q 1069 891 1326 650 
Q 1584 409 2034 409 
Q 2484 409 2743 651 
Q 3003 894 3003 1313 
Q 3003 1734 2745 1975 
Q 2488 2216 2034 2216 
z
M 1403 2484 
Q 997 2584 770 2862 
Q 544 3141 544 3541 
Q 544 4100 942 4425 
Q 1341 4750 2034 4750 
Q 2731 4750 3128 4425 
Q 3525 4100 3525 3541 
Q 3525 3141 3298 2862 
Q 3072 2584 2669 2484 
Q 3125 2378 3379 2068 
Q 3634 1759 3634 1313 
Q 3634 634 3220 271 
Q 2806 -91 2034 -91 
Q 1263 -91 848 271 
Q 434 634 434 1313 
Q 434 1759 690 2068 
Q 947 2378 1403 2484 
z
M 1172 3481 
Q 1172 3119 1398 2916 
Q 1625 2713 2034 2713 
Q 2441 2713 2670 2916 
Q 2900 3119 2900 3481 
Q 2900 3844 2670 4047 
Q 2441 4250 2034 4250 
Q 1625 4250 1398 4047 
Q 1172 3844 1172 3481 
z
" id="DejaVuSans-38" transform="scale(0.015625)"/>
       </defs>
       <use xlink:href="#DejaVuSans-30"/>
       <use x="63.623047" xlink:href="#DejaVuSans-2e"/>
       <use x="95.410156" xlink:href="#DejaVuSans-38"/>
      </g>
     </g>
    </g>
    <g id="xtick_6">
     <g id="line2d_6">
      <g>
       <use style="stroke:#000000;stroke-width:0.8;" x="249.054545" xlink:href="#m45edd724f8" y="378"/>
      </g>
     </g>
     <g id="text_6">
      <!-- 1.0 -->
      <g transform="translate(241.102983 392.598437)scale(0.1 -0.1)">
       <defs>
        <path d="M 794 531 
L 1825 531 
L 1825 4091 
L 703 3866 
L 703 4441 
L 1819 4666 
L 2450 4666 
L 2450 531 
L 3481 531 
L 3481 0 
L 794 0 
L 794 531 
z
" id="DejaVuSans-31" transform="scale(0.015625)"/>
       </defs>
       <use xlink:href="#DejaVuSans-31"/>
       <use x="63.623047" xlink:href="#DejaVuSans-2e"/>
       <use x="95.410156" xlink:href="#DejaVuSans-30"/>
      </g>
     </g>
    </g>
    <g id="text_7">
     <!-- $x$ -->
     <g transform="translate(144 407.79625)scale(0.12 -0.12)">
      <defs>
       <path d="M 3841 3500 
L 2234 1784 
L 3219 0 
L 2559 0 
L 1819 1388 
L 531 0 
L -166 0 
L 1556 1844 
L 641 3500 
L 1300 3500 
L 1972 2234 
L 3144 3500 
L 3841 3500 
z
" id="DejaVuSans-Oblique-78" transform="scale(0.015625)"/>
      </defs>
      <use transform="translate(0 0.3125)" xlink:href="#DejaVuSans-Oblique-78"/>
     </g>
    </g>
   </g>
   <g id="matplotlib.axis_2">
    <g id="ytick_1">
     <g id="line2d_7">
      <defs>
       <path d="M 0 0 
L -3.5 0 
" id="m27965c2bf0" style="stroke:#000000;stroke-width:0.8;"/>
      </defs>
      <g>
       <use style="stroke:#000000;stroke-width:0.8;" x="36" xlink:href="#m27965c2bf0" y="366.140548"/>
      </g>
     </g>
     <g id="text_8">
      <!-- 0 -->
      <g transform="translate(22.6375 369.939767)scale(0.1 -0.1)">
       <use xlink:href="#DejaVuSans-30"/>
      </g>
     </g>
    </g>
    <g id="ytick_2">
     <g id="line2d_8">
      <g>
       <use style="stroke:#000000;stroke-width:0.8;" x="36" xlink:href="#m27965c2bf0" y="306.305799"/>
      </g>
     </g>
     <g id="text_9">
      <!-- 20 -->
      <g transform="translate(16.275 310.105018)scale(0.1 -0.1)">
       <use xlink:href="#DejaVuSans-32"/>
       <use x="63.623047" xlink:href="#DejaVuSans-30"/>
      </g>
     </g>
    </g>
    <g id="ytick_3">
     <g id="line2d_9">
      <g>
       <use style="stroke:#000000;stroke-width:0.8;" x="36" xlink:href="#m27965c2bf0" y="246.47105"/>
      </g>
     </g>
     <g id="text_10">
      <!-- 40 -->
      <g transform="translate(16.275 250.270268)scale(0.1 -0.1)">
       <use xlink:href="#DejaVuSans-34"/>
       <use x="63.623047" xlink:href="#DejaVuSans-30"/>
      </g>
     </g>
    </g>
    <g id="ytick_4">
     <g id="line2d_10">
      <g>
       <use style="stroke:#000000;stroke-width:0.8;" x="36" xlink:href="#m27965c2bf0" y="186.6363"/>
      </g>
     </g>
     <g id="text_11">
      <!-- 60 -->
      <g transform="translate(16.275 190.435519)scale(0.1 -0.1)">
       <use xlink:href="#DejaVuSans-36"/>
       <use x="63.623047" xlink:href="#DejaVuSans-30"/>
      </g>
     </g>
    </g>
    <g id="ytick_5">
     <g id="line2d_11">
      <g>
       <use style="stroke:#000000;stroke-width:0.8;" x="36" xlink:href="#m27965c2bf0" y="126.801551"/>
      </g>
     </g>
     <g id="text_12">
      <!-- 80 -->
      <g transform="translate(16.275 130.60077)scale(0.1 -0.1)">
       <use xlink:href="#DejaVuSans-38"/>
       <use x="63.623047" xlink:href="#DejaVuSans-30"/>
      </g>
     </g>
    </g>
    <g id="ytick_6">
     <g id="line2d_12">
      <g>
       <use style="stroke:#000000;stroke-width:0.8;" x="36" xlink:href="#m27965c2bf0" y="66.966802"/>
      </g>
     </g>
     <g id="text_13">
      <!-- 100 -->
      <g transform="translate(9.9125 70.76602)scale(0.1 -0.1)">
       <use xlink:href="#DejaVuSans-31"/>
       <use x="63.623047" xlink:href="#DejaVuSans-30"/>
       <use x="127.246094" xlink:href="#DejaVuSans-30"/>
      </g>
     </g>
    </g>
    <g id="text_14">
     <!-- E -->
     <g transform="translate(3.416875 218.71125)rotate(-90)scale(0.12 -0.12)">
      <defs>
       <path d="M 628 4666 
L 3578 4666 
L 3578 4134 
L 1259 4134 
L 1259 2753 
L 3481 2753 
L 3481 2222 
L 1259 2222 
L 1259 531 
L 3634 531 
L 3634 0 
L 628 0 
L 628 4666 
z
" id="DejaVuSans-45" transform="scale(0.015625)"/>
      </defs>
      <use xlink:href="#DejaVuSans-45"/>
     </g>
    </g>
   </g>
   <g id="line2d_13">
    <path clip-path="url(#pe7fb4cd44d)" d="M 46.145455 363.174545 
L 80.912443 361.013431 
L 100.227437 360.043797 
L 116.899326 359.427834 
L 132.351321 359.077886 
L 147.396684 358.961122 
L 162.238732 359.068769 
L 177.487411 359.403869 
L 193.549353 359.982439 
L 211.441137 360.85617 
L 233.602551 362.175311 
L 249.054545 363.174545 
L 249.054545 363.174545 
" style="fill:none;stroke:#1f77b4;stroke-linecap:square;stroke-width:1.5;"/>
   </g>
   <g id="line2d_14">
    <path clip-path="url(#pe7fb4cd44d)" d="M 46.145455 354.303124 
L 63.427291 352.155288 
L 72.98313 351.194544 
L 81.319075 350.575774 
L 89.045072 350.222863 
L 96.567754 350.103042 
L 104.090435 350.210626 
L 111.613117 350.539828 
L 119.745746 351.124295 
L 128.691638 351.998027 
L 139.874003 353.330065 
L 169.151467 356.941202 
L 178.097358 357.749171 
L 186.229987 358.259588 
L 193.752669 358.512345 
L 201.275351 358.540061 
L 208.798032 358.341247 
L 216.52403 357.912581 
L 224.859974 357.223072 
L 234.415813 356.201097 
L 247.834651 354.515522 
L 249.054545 354.356238 
L 249.054545 354.356238 
" style="fill:none;stroke:#ff7f0e;stroke-linecap:square;stroke-width:1.5;"/>
   </g>
   <g id="line2d_15">
    <path clip-path="url(#pe7fb4cd44d)" d="M 46.145455 339.526371 
L 57.734451 337.369082 
L 64.240554 336.395695 
L 69.730078 335.794159 
L 74.812971 335.453188 
L 79.895864 335.339504 
L 84.775442 335.450149 
L 89.858335 335.788186 
L 95.144544 336.36082 
L 101.0407 337.223488 
L 108.563381 338.56659 
L 128.081691 342.177728 
L 133.977847 342.977875 
L 139.264055 343.481275 
L 144.346948 343.744963 
L 149.226526 343.78092 
L 154.309419 343.590142 
L 159.392312 343.177 
L 164.881836 342.507637 
L 171.184624 341.508723 
L 179.9272 339.871349 
L 193.346038 337.35775 
L 199.648825 336.41332 
L 205.138349 335.806215 
L 210.221242 335.459388 
L 215.304136 335.339504 
L 220.183713 335.444193 
L 225.266606 335.776353 
L 230.552815 336.343573 
L 236.448971 337.20143 
L 243.768337 338.502207 
L 249.054545 339.526371 
L 249.054545 339.526371 
" style="fill:none;stroke:#2ca02c;stroke-linecap:square;stroke-width:1.5;"/>
   </g>
   <g id="line2d_16">
    <path clip-path="url(#pe7fb4cd44d)" d="M 46.145455 318.844432 
L 54.684715 316.723152 
L 59.564292 315.744659 
L 63.833922 315.119525 
L 67.696921 314.77849 
L 71.356604 314.670822 
L 75.016287 314.77849 
L 78.879286 315.119525 
L 82.9456 315.709534 
L 87.418546 316.588088 
L 93.111386 317.949615 
L 107.343487 321.467098 
L 111.816433 322.285547 
L 115.882747 322.807591 
L 119.745746 323.076303 
L 123.405429 323.11226 
L 127.065112 322.933493 
L 130.928111 322.522073 
L 134.994425 321.867452 
L 139.670687 320.887081 
L 146.17679 319.268868 
L 156.545892 316.677778 
L 161.425469 315.709534 
L 165.491784 315.119525 
L 169.354782 314.77849 
L 173.014465 314.670822 
L 176.674148 314.77849 
L 180.537147 315.119525 
L 184.603461 315.709534 
L 189.076407 316.588088 
L 194.769248 317.949615 
L 209.001348 321.467098 
L 213.474294 322.285547 
L 217.540608 322.807591 
L 221.403607 323.076303 
L 225.06329 323.11226 
L 228.722973 322.933493 
L 232.585972 322.522073 
L 236.652286 321.867452 
L 241.328548 320.887081 
L 247.834651 319.268868 
L 249.054545 318.950659 
L 249.054545 318.950659 
" style="fill:none;stroke:#d62728;stroke-linecap:square;stroke-width:1.5;"/>
   </g>
   <g id="line2d_17">
    <path clip-path="url(#pe7fb4cd44d)" d="M 46.145455 292.257512 
L 53.058189 290.115446 
L 56.921188 289.153391 
L 60.174239 288.557865 
L 63.223975 288.213964 
L 66.273711 288.09718 
L 69.323447 288.213964 
L 72.373183 288.557865 
L 75.626234 289.153391 
L 79.285917 290.059111 
L 83.962179 291.466777 
L 94.737912 294.808308 
L 98.397595 295.663669 
L 101.650647 296.202998 
L 104.700383 296.487687 
L 107.750118 296.542286 
L 110.799854 296.363775 
L 113.84959 295.962021 
L 117.102642 295.312648 
L 120.96564 294.301713 
L 126.251849 292.655528 
L 134.384478 290.115446 
L 138.247477 289.153391 
L 141.500528 288.557865 
L 144.550264 288.213964 
L 147.6 288.09718 
L 150.649736 288.213964 
L 153.699472 288.557865 
L 156.952523 289.153391 
L 160.612206 290.059111 
L 165.288468 291.466777 
L 176.064201 294.808308 
L 179.723884 295.663669 
L 182.976936 296.202998 
L 186.026672 296.487687 
L 189.076407 296.542286 
L 192.126143 296.363775 
L 195.175879 295.962021 
L 198.428931 295.312648 
L 202.291929 294.301713 
L 207.578138 292.655528 
L 215.710767 290.115446 
L 219.573766 289.153391 
L 222.826817 288.557865 
L 225.876553 288.213964 
L 228.926289 288.09718 
L 231.976025 288.213964 
L 235.025761 288.557865 
L 238.278812 289.153391 
L 241.938495 290.059111 
L 246.614757 291.466777 
L 249.054545 292.257512 
L 249.054545 292.257512 
" style="fill:none;stroke:#9467bd;stroke-linecap:square;stroke-width:1.5;"/>
   </g>
   <g id="line2d_18">
    <path clip-path="url(#pe7fb4cd44d)" d="M 46.145455 259.765873 
L 51.838295 257.648416 
L 55.091346 256.675028 
L 57.937766 256.055687 
L 60.580871 255.714898 
L 63.02066 255.619151 
L 65.460448 255.738722 
L 68.103553 256.103912 
L 70.746657 256.692653 
L 73.796393 257.603216 
L 77.659392 259.001422 
L 86.605283 262.329946 
L 89.655019 263.185307 
L 92.298124 263.714012 
L 94.941228 264.011588 
L 97.381017 264.065508 
L 99.820805 263.904437 
L 102.46391 263.497106 
L 105.31033 262.815448 
L 108.563381 261.788058 
L 113.036327 260.110939 
L 119.745746 257.603216 
L 122.998798 256.640154 
L 125.845218 256.03247 
L 128.488322 255.703964 
L 130.928111 255.620152 
L 133.367899 255.751607 
L 136.011004 256.128914 
L 138.654108 256.728276 
L 141.703844 257.648416 
L 145.770158 259.131928 
L 154.106103 262.24323 
L 157.155839 263.119151 
L 160.002259 263.703236 
L 162.645363 264.007022 
L 165.085152 264.066926 
L 167.524941 263.911766 
L 170.168045 263.510409 
L 173.014465 262.834285 
L 176.267517 261.811606 
L 180.740463 260.137438 
L 187.449882 257.625773 
L 190.702933 256.657528 
L 193.549353 256.044003 
L 196.192458 255.70935 
L 198.632246 255.619568 
L 201.072035 255.745084 
L 203.715139 256.116339 
L 206.358244 256.710403 
L 209.40798 257.625773 
L 213.474294 259.105766 
L 222.013554 262.286781 
L 225.06329 263.15249 
L 227.90971 263.724636 
L 230.552815 264.015989 
L 232.992603 264.063924 
L 235.432392 263.896947 
L 238.075496 263.483659 
L 240.921917 262.796493 
L 244.174968 261.764433 
L 248.647914 260.084429 
L 249.054545 259.925208 
L 249.054545 259.925208 
" style="fill:none;stroke:#8c564b;stroke-linecap:square;stroke-width:1.5;"/>
   </g>
   <g id="line2d_19">
    <path clip-path="url(#pe7fb4cd44d)" d="M 46.145455 221.369836 
L 51.025032 219.254322 
L 53.871452 218.266064 
L 56.311241 217.655456 
L 58.547714 217.326588 
L 60.784187 217.238579 
L 62.817344 217.372168 
L 65.053817 217.746152 
L 67.493605 218.39987 
L 70.13671 219.345585 
L 73.796393 220.919859 
L 80.302496 223.761105 
L 83.148916 224.727974 
L 85.588705 225.315029 
L 87.825178 225.619531 
L 89.858335 225.6865 
L 91.891492 225.550028 
L 94.127965 225.173064 
L 96.567754 224.516522 
L 99.210858 223.56847 
L 102.870541 221.992528 
L 109.376644 219.153321 
L 112.223064 218.189169 
L 114.662853 217.605084 
L 116.899326 217.303642 
L 118.932483 217.23958 
L 120.96564 217.378934 
L 123.202113 217.758873 
L 125.641902 218.418232 
L 128.285006 219.368612 
L 131.944689 220.946207 
L 138.450792 223.783347 
L 141.297213 224.744773 
L 143.737001 225.325882 
L 145.973474 225.624261 
L 148.006631 225.685416 
L 150.039789 225.543181 
L 152.276262 225.16027 
L 154.71605 224.498101 
L 157.359155 223.545402 
L 161.018838 221.96617 
L 167.524941 219.131124 
L 170.371361 218.172434 
L 172.81115 217.594307 
L 175.047623 217.298994 
L 177.08078 217.240747 
L 179.113937 217.385861 
L 181.35041 217.77174 
L 183.790199 218.436713 
L 186.433303 219.391722 
L 190.092986 220.972575 
L 196.395773 223.727571 
L 199.242193 224.702534 
L 201.681982 225.298465 
L 203.918455 225.612128 
L 205.951612 225.687814 
L 207.98477 225.559995 
L 210.221242 225.191981 
L 212.661031 224.543928 
L 215.304136 223.602917 
L 218.963819 222.032026 
L 225.673237 219.10902 
L 228.316342 218.214513 
L 230.75613 217.621534 
L 232.992603 217.310922 
L 235.025761 217.238141 
L 237.058918 217.368845 
L 239.295391 217.739846 
L 241.735179 218.390735 
L 244.378284 219.334103 
L 248.037967 220.906693 
L 249.054545 221.369836 
L 249.054545 221.369836 
" style="fill:none;stroke:#e377c2;stroke-linecap:square;stroke-width:1.5;"/>
   </g>
   <g id="line2d_20">
    <path clip-path="url(#pe7fb4cd44d)" d="M 46.145455 177.06978 
L 50.415085 174.956229 
L 52.854873 173.987985 
L 54.888031 173.397976 
L 56.921188 173.045354 
L 58.751029 172.949607 
L 60.580871 173.069178 
L 62.410712 173.397976 
L 64.44387 173.987985 
L 66.680343 174.866539 
L 69.730078 176.331878 
L 76.439497 179.660404 
L 78.879286 180.564 
L 80.912443 181.086044 
L 82.742285 181.346447 
L 84.572126 181.394381 
L 86.401968 181.227405 
L 88.435125 180.800526 
L 90.468282 180.145905 
L 92.908071 179.118515 
L 96.364438 177.388366 
L 101.244015 174.956229 
L 103.683804 173.987985 
L 105.716961 173.397976 
L 107.750118 173.045354 
L 109.57996 172.949607 
L 111.409801 173.069178 
L 113.239643 173.397976 
L 115.2728 173.987985 
L 117.509273 174.866539 
L 120.559009 176.331878 
L 127.268428 179.660404 
L 129.708216 180.564 
L 131.741374 181.086044 
L 133.571215 181.346447 
L 135.401057 181.394381 
L 137.230898 181.227405 
L 139.264055 180.800526 
L 141.297213 180.145905 
L 143.737001 179.118515 
L 147.193369 177.388366 
L 152.072946 174.956229 
L 154.512735 173.987985 
L 156.545892 173.397976 
L 158.579049 173.045354 
L 160.408891 172.949607 
L 162.238732 173.069178 
L 164.068574 173.397976 
L 166.101731 173.987985 
L 168.338204 174.866539 
L 171.38794 176.331878 
L 178.097358 179.660404 
L 180.537147 180.564 
L 182.570304 181.086044 
L 184.400146 181.346447 
L 186.229987 181.394381 
L 188.059829 181.227405 
L 190.092986 180.800526 
L 192.126143 180.145905 
L 194.565932 179.118515 
L 198.022299 177.388366 
L 202.901876 174.956229 
L 205.341665 173.987985 
L 207.374822 173.397976 
L 209.40798 173.045354 
L 211.237821 172.949607 
L 213.067663 173.069178 
L 214.897504 173.397976 
L 216.930661 173.987985 
L 219.167134 174.866539 
L 222.21687 176.331878 
L 228.926289 179.660404 
L 231.366078 180.564 
L 233.399235 181.086044 
L 235.229076 181.346447 
L 237.058918 181.394381 
L 238.888759 181.227405 
L 240.921917 180.800526 
L 242.955074 180.145905 
L 245.394862 179.118515 
L 248.85123 177.388366 
L 249.054545 177.282215 
L 249.054545 177.282215 
" style="fill:none;stroke:#7f7f7f;stroke-linecap:square;stroke-width:1.5;"/>
   </g>
   <g id="line2d_21">
    <path clip-path="url(#pe7fb4cd44d)" d="M 46.145455 126.866141 
L 50.008453 124.72084 
L 52.244926 123.737365 
L 54.074768 123.161178 
L 55.904609 122.831307 
L 57.531135 122.762432 
L 59.157661 122.908714 
L 60.784187 123.262699 
L 62.614028 123.886364 
L 64.647185 124.811238 
L 67.493605 126.376939 
L 72.779814 129.339393 
L 75.016287 130.300837 
L 76.846129 130.854105 
L 78.472654 131.137491 
L 80.09918 131.209354 
L 81.725706 131.066035 
L 83.352232 130.714835 
L 85.182073 130.093915 
L 87.21523 129.171403 
L 90.061651 127.607464 
L 95.347859 124.642913 
L 97.584332 123.678682 
L 99.414174 123.122529 
L 101.0407 122.836283 
L 102.667225 122.761431 
L 104.293751 122.901787 
L 105.920277 123.250198 
L 107.750118 123.868368 
L 109.783276 124.788508 
L 112.629696 126.35067 
L 117.915905 129.317288 
L 120.152377 130.284297 
L 121.982219 130.843329 
L 123.608745 131.132432 
L 125.235271 131.210272 
L 126.861796 131.072882 
L 128.488322 130.727262 
L 130.318164 130.11185 
L 132.351321 129.19409 
L 135.197741 127.63372 
L 140.687265 124.56612 
L 142.923738 123.621598 
L 144.75358 123.085749 
L 146.380106 122.819584 
L 148.006631 122.765664 
L 149.633157 122.926735 
L 151.259683 123.294593 
L 153.089525 123.931889 
L 155.325997 124.972705 
L 158.375733 126.680489 
L 162.848679 129.19409 
L 165.085152 130.19102 
L 166.914994 130.781348 
L 168.744835 131.12721 
L 170.371361 131.211023 
L 171.997887 131.079567 
L 173.624412 130.739541 
L 175.454254 130.129661 
L 177.487411 129.21669 
L 180.333831 127.65995 
L 185.823356 124.587943 
L 188.059829 123.637743 
L 189.88967 123.096066 
L 191.516196 122.82415 
L 193.142722 122.764246 
L 194.769248 122.919406 
L 196.395773 123.281725 
L 198.225615 123.913588 
L 200.462088 124.949392 
L 203.511824 126.654008 
L 208.188085 129.272803 
L 210.424558 130.250828 
L 212.2544 130.82132 
L 213.880925 131.121825 
L 215.507451 131.211607 
L 217.133977 131.086091 
L 218.760503 130.751672 
L 220.590344 130.147349 
L 222.623502 129.239202 
L 225.266606 127.803713 
L 231.162762 124.511981 
L 233.195919 123.65402 
L 235.025761 123.106536 
L 236.652286 122.82888 
L 238.278812 122.762995 
L 239.905338 122.912238 
L 241.531864 123.269005 
L 243.361705 123.895408 
L 245.394862 124.822636 
L 248.241283 126.390082 
L 249.054545 126.866141 
L 249.054545 126.866141 
" style="fill:none;stroke:#bcbd22;stroke-linecap:square;stroke-width:1.5;"/>
   </g>
   <g id="line2d_22">
    <path clip-path="url(#pe7fb4cd44d)" d="M 46.145455 70.759415 
L 49.601822 68.627387 
L 51.634979 67.635432 
L 53.261505 67.067724 
L 54.888031 66.740321 
L 56.311241 66.66754 
L 57.734451 66.798245 
L 59.360976 67.188272 
L 60.987502 67.81103 
L 63.02066 68.855939 
L 65.86708 70.626782 
L 69.933394 73.156973 
L 71.966551 74.148928 
L 73.593077 74.716635 
L 75.219603 75.044038 
L 76.642813 75.11682 
L 78.066023 74.986115 
L 79.692549 74.596088 
L 81.319075 73.97333 
L 83.352232 72.92842 
L 86.198652 71.157578 
L 90.264966 68.627387 
L 92.298124 67.635432 
L 93.924649 67.067724 
L 95.551175 66.740321 
L 96.974385 66.66754 
L 98.397595 66.798245 
L 100.024121 67.188272 
L 101.650647 67.81103 
L 103.683804 68.855939 
L 106.530224 70.626782 
L 110.596539 73.156973 
L 112.629696 74.148928 
L 114.256222 74.716635 
L 115.882747 75.044038 
L 117.305957 75.11682 
L 118.729167 74.986115 
L 120.355693 74.596088 
L 121.982219 73.97333 
L 124.015376 72.92842 
L 126.861796 71.157578 
L 130.928111 68.627387 
L 132.961268 67.635432 
L 134.587794 67.067724 
L 136.21432 66.740321 
L 137.63753 66.66754 
L 139.06074 66.798245 
L 140.687265 67.188272 
L 142.313791 67.81103 
L 144.346948 68.855939 
L 147.193369 70.626782 
L 151.259683 73.156973 
L 153.29284 74.148928 
L 154.919366 74.716635 
L 156.545892 75.044038 
L 157.969102 75.11682 
L 159.392312 74.986115 
L 161.018838 74.596088 
L 162.645363 73.97333 
L 164.678521 72.92842 
L 167.524941 71.157578 
L 171.591255 68.627387 
L 173.624412 67.635432 
L 175.250938 67.067724 
L 176.877464 66.740321 
L 178.300674 66.66754 
L 179.723884 66.798245 
L 181.35041 67.188272 
L 182.976936 67.81103 
L 185.010093 68.855939 
L 187.856513 70.626782 
L 191.922827 73.156973 
L 193.955985 74.148928 
L 195.58251 74.716635 
L 197.209036 75.044038 
L 198.632246 75.11682 
L 200.055456 74.986115 
L 201.681982 74.596088 
L 203.308508 73.97333 
L 205.341665 72.92842 
L 208.188085 71.157578 
L 212.2544 68.627387 
L 214.287557 67.635432 
L 215.914083 67.067724 
L 217.540608 66.740321 
L 218.963819 66.66754 
L 220.387029 66.798245 
L 222.013554 67.188272 
L 223.64008 67.81103 
L 225.673237 68.855939 
L 228.519657 70.626782 
L 232.585972 73.156973 
L 234.619129 74.148928 
L 236.245655 74.716635 
L 237.872181 75.044038 
L 239.295391 75.11682 
L 240.718601 74.986115 
L 242.345127 74.596088 
L 243.971652 73.97333 
L 246.00481 72.92842 
L 248.85123 71.157578 
L 249.054545 71.024945 
L 249.054545 71.024945 
" style="fill:none;stroke:#17becf;stroke-linecap:square;stroke-width:1.5;"/>
   </g>
   <g id="patch_3">
    <path d="M 36 378 
L 36 51.84 
" style="fill:none;stroke:#000000;stroke-linecap:square;stroke-linejoin:miter;stroke-width:0.8;"/>
   </g>
   <g id="patch_4">
    <path d="M 259.2 378 
L 259.2 51.84 
" style="fill:none;stroke:#000000;stroke-linecap:square;stroke-linejoin:miter;stroke-width:0.8;"/>
   </g>
   <g id="patch_5">
    <path d="M 36 378 
L 259.2 378 
" style="fill:none;stroke:#000000;stroke-linecap:square;stroke-linejoin:miter;stroke-width:0.8;"/>
   </g>
   <g id="patch_6">
    <path d="M 36 51.84 
L 259.2 51.84 
" style="fill:none;stroke:#000000;stroke-linecap:square;stroke-linejoin:miter;stroke-width:0.8;"/>
   </g>
   <g id="text_15">
    <!-- Wave function: illustration of "particle in the box" -->
    <g transform="translate(-0.758438 45.84)scale(0.12 -0.12)">
     <defs>
      <path d="M 213 4666 
L 850 4666 
L 1831 722 
L 2809 4666 
L 3519 4666 
L 4500 722 
L 5478 4666 
L 6119 4666 
L 4947 0 
L 4153 0 
L 3169 4050 
L 2175 0 
L 1381 0 
L 213 4666 
z
" id="DejaVuSans-57" transform="scale(0.015625)"/>
      <path d="M 2194 1759 
Q 1497 1759 1228 1600 
Q 959 1441 959 1056 
Q 959 750 1161 570 
Q 1363 391 1709 391 
Q 2188 391 2477 730 
Q 2766 1069 2766 1631 
L 2766 1759 
L 2194 1759 
z
M 3341 1997 
L 3341 0 
L 2766 0 
L 2766 531 
Q 2569 213 2275 61 
Q 1981 -91 1556 -91 
Q 1019 -91 701 211 
Q 384 513 384 1019 
Q 384 1609 779 1909 
Q 1175 2209 1959 2209 
L 2766 2209 
L 2766 2266 
Q 2766 2663 2505 2880 
Q 2244 3097 1772 3097 
Q 1472 3097 1187 3025 
Q 903 2953 641 2809 
L 641 3341 
Q 956 3463 1253 3523 
Q 1550 3584 1831 3584 
Q 2591 3584 2966 3190 
Q 3341 2797 3341 1997 
z
" id="DejaVuSans-61" transform="scale(0.015625)"/>
      <path d="M 191 3500 
L 800 3500 
L 1894 563 
L 2988 3500 
L 3597 3500 
L 2284 0 
L 1503 0 
L 191 3500 
z
" id="DejaVuSans-76" transform="scale(0.015625)"/>
      <path d="M 3597 1894 
L 3597 1613 
L 953 1613 
Q 991 1019 1311 708 
Q 1631 397 2203 397 
Q 2534 397 2845 478 
Q 3156 559 3463 722 
L 3463 178 
Q 3153 47 2828 -22 
Q 2503 -91 2169 -91 
Q 1331 -91 842 396 
Q 353 884 353 1716 
Q 353 2575 817 3079 
Q 1281 3584 2069 3584 
Q 2775 3584 3186 3129 
Q 3597 2675 3597 1894 
z
M 3022 2063 
Q 3016 2534 2758 2815 
Q 2500 3097 2075 3097 
Q 1594 3097 1305 2825 
Q 1016 2553 972 2059 
L 3022 2063 
z
" id="DejaVuSans-65" transform="scale(0.015625)"/>
      <path id="DejaVuSans-20" transform="scale(0.015625)"/>
      <path d="M 2375 4863 
L 2375 4384 
L 1825 4384 
Q 1516 4384 1395 4259 
Q 1275 4134 1275 3809 
L 1275 3500 
L 2222 3500 
L 2222 3053 
L 1275 3053 
L 1275 0 
L 697 0 
L 697 3053 
L 147 3053 
L 147 3500 
L 697 3500 
L 697 3744 
Q 697 4328 969 4595 
Q 1241 4863 1831 4863 
L 2375 4863 
z
" id="DejaVuSans-66" transform="scale(0.015625)"/>
      <path d="M 544 1381 
L 544 3500 
L 1119 3500 
L 1119 1403 
Q 1119 906 1312 657 
Q 1506 409 1894 409 
Q 2359 409 2629 706 
Q 2900 1003 2900 1516 
L 2900 3500 
L 3475 3500 
L 3475 0 
L 2900 0 
L 2900 538 
Q 2691 219 2414 64 
Q 2138 -91 1772 -91 
Q 1169 -91 856 284 
Q 544 659 544 1381 
z
M 1991 3584 
L 1991 3584 
z
" id="DejaVuSans-75" transform="scale(0.015625)"/>
      <path d="M 3513 2113 
L 3513 0 
L 2938 0 
L 2938 2094 
Q 2938 2591 2744 2837 
Q 2550 3084 2163 3084 
Q 1697 3084 1428 2787 
Q 1159 2491 1159 1978 
L 1159 0 
L 581 0 
L 581 3500 
L 1159 3500 
L 1159 2956 
Q 1366 3272 1645 3428 
Q 1925 3584 2291 3584 
Q 2894 3584 3203 3211 
Q 3513 2838 3513 2113 
z
" id="DejaVuSans-6e" transform="scale(0.015625)"/>
      <path d="M 3122 3366 
L 3122 2828 
Q 2878 2963 2633 3030 
Q 2388 3097 2138 3097 
Q 1578 3097 1268 2742 
Q 959 2388 959 1747 
Q 959 1106 1268 751 
Q 1578 397 2138 397 
Q 2388 397 2633 464 
Q 2878 531 3122 666 
L 3122 134 
Q 2881 22 2623 -34 
Q 2366 -91 2075 -91 
Q 1284 -91 818 406 
Q 353 903 353 1747 
Q 353 2603 823 3093 
Q 1294 3584 2113 3584 
Q 2378 3584 2631 3529 
Q 2884 3475 3122 3366 
z
" id="DejaVuSans-63" transform="scale(0.015625)"/>
      <path d="M 1172 4494 
L 1172 3500 
L 2356 3500 
L 2356 3053 
L 1172 3053 
L 1172 1153 
Q 1172 725 1289 603 
Q 1406 481 1766 481 
L 2356 481 
L 2356 0 
L 1766 0 
Q 1100 0 847 248 
Q 594 497 594 1153 
L 594 3053 
L 172 3053 
L 172 3500 
L 594 3500 
L 594 4494 
L 1172 4494 
z
" id="DejaVuSans-74" transform="scale(0.015625)"/>
      <path d="M 603 3500 
L 1178 3500 
L 1178 0 
L 603 0 
L 603 3500 
z
M 603 4863 
L 1178 4863 
L 1178 4134 
L 603 4134 
L 603 4863 
z
" id="DejaVuSans-69" transform="scale(0.015625)"/>
      <path d="M 1959 3097 
Q 1497 3097 1228 2736 
Q 959 2375 959 1747 
Q 959 1119 1226 758 
Q 1494 397 1959 397 
Q 2419 397 2687 759 
Q 2956 1122 2956 1747 
Q 2956 2369 2687 2733 
Q 2419 3097 1959 3097 
z
M 1959 3584 
Q 2709 3584 3137 3096 
Q 3566 2609 3566 1747 
Q 3566 888 3137 398 
Q 2709 -91 1959 -91 
Q 1206 -91 779 398 
Q 353 888 353 1747 
Q 353 2609 779 3096 
Q 1206 3584 1959 3584 
z
" id="DejaVuSans-6f" transform="scale(0.015625)"/>
      <path d="M 750 794 
L 1409 794 
L 1409 0 
L 750 0 
L 750 794 
z
M 750 3309 
L 1409 3309 
L 1409 2516 
L 750 2516 
L 750 3309 
z
" id="DejaVuSans-3a" transform="scale(0.015625)"/>
      <path d="M 603 4863 
L 1178 4863 
L 1178 0 
L 603 0 
L 603 4863 
z
" id="DejaVuSans-6c" transform="scale(0.015625)"/>
      <path d="M 2834 3397 
L 2834 2853 
Q 2591 2978 2328 3040 
Q 2066 3103 1784 3103 
Q 1356 3103 1142 2972 
Q 928 2841 928 2578 
Q 928 2378 1081 2264 
Q 1234 2150 1697 2047 
L 1894 2003 
Q 2506 1872 2764 1633 
Q 3022 1394 3022 966 
Q 3022 478 2636 193 
Q 2250 -91 1575 -91 
Q 1294 -91 989 -36 
Q 684 19 347 128 
L 347 722 
Q 666 556 975 473 
Q 1284 391 1588 391 
Q 1994 391 2212 530 
Q 2431 669 2431 922 
Q 2431 1156 2273 1281 
Q 2116 1406 1581 1522 
L 1381 1569 
Q 847 1681 609 1914 
Q 372 2147 372 2553 
Q 372 3047 722 3315 
Q 1072 3584 1716 3584 
Q 2034 3584 2315 3537 
Q 2597 3491 2834 3397 
z
" id="DejaVuSans-73" transform="scale(0.015625)"/>
      <path d="M 2631 2963 
Q 2534 3019 2420 3045 
Q 2306 3072 2169 3072 
Q 1681 3072 1420 2755 
Q 1159 2438 1159 1844 
L 1159 0 
L 581 0 
L 581 3500 
L 1159 3500 
L 1159 2956 
Q 1341 3275 1631 3429 
Q 1922 3584 2338 3584 
Q 2397 3584 2469 3576 
Q 2541 3569 2628 3553 
L 2631 2963 
z
" id="DejaVuSans-72" transform="scale(0.015625)"/>
      <path d="M 1147 4666 
L 1147 2931 
L 616 2931 
L 616 4666 
L 1147 4666 
z
M 2328 4666 
L 2328 2931 
L 1797 2931 
L 1797 4666 
L 2328 4666 
z
" id="DejaVuSans-22" transform="scale(0.015625)"/>
      <path d="M 1159 525 
L 1159 -1331 
L 581 -1331 
L 581 3500 
L 1159 3500 
L 1159 2969 
Q 1341 3281 1617 3432 
Q 1894 3584 2278 3584 
Q 2916 3584 3314 3078 
Q 3713 2572 3713 1747 
Q 3713 922 3314 415 
Q 2916 -91 2278 -91 
Q 1894 -91 1617 61 
Q 1341 213 1159 525 
z
M 3116 1747 
Q 3116 2381 2855 2742 
Q 2594 3103 2138 3103 
Q 1681 3103 1420 2742 
Q 1159 2381 1159 1747 
Q 1159 1113 1420 752 
Q 1681 391 2138 391 
Q 2594 391 2855 752 
Q 3116 1113 3116 1747 
z
" id="DejaVuSans-70" transform="scale(0.015625)"/>
      <path d="M 3513 2113 
L 3513 0 
L 2938 0 
L 2938 2094 
Q 2938 2591 2744 2837 
Q 2550 3084 2163 3084 
Q 1697 3084 1428 2787 
Q 1159 2491 1159 1978 
L 1159 0 
L 581 0 
L 581 4863 
L 1159 4863 
L 1159 2956 
Q 1366 3272 1645 3428 
Q 1925 3584 2291 3584 
Q 2894 3584 3203 3211 
Q 3513 2838 3513 2113 
z
" id="DejaVuSans-68" transform="scale(0.015625)"/>
      <path d="M 3116 1747 
Q 3116 2381 2855 2742 
Q 2594 3103 2138 3103 
Q 1681 3103 1420 2742 
Q 1159 2381 1159 1747 
Q 1159 1113 1420 752 
Q 1681 391 2138 391 
Q 2594 391 2855 752 
Q 3116 1113 3116 1747 
z
M 1159 2969 
Q 1341 3281 1617 3432 
Q 1894 3584 2278 3584 
Q 2916 3584 3314 3078 
Q 3713 2572 3713 1747 
Q 3713 922 3314 415 
Q 2916 -91 2278 -91 
Q 1894 -91 1617 61 
Q 1341 213 1159 525 
L 1159 0 
L 581 0 
L 581 4863 
L 1159 4863 
L 1159 2969 
z
" id="DejaVuSans-62" transform="scale(0.015625)"/>
      <path d="M 3513 3500 
L 2247 1797 
L 3578 0 
L 2900 0 
L 1881 1375 
L 863 0 
L 184 0 
L 1544 1831 
L 300 3500 
L 978 3500 
L 1906 2253 
L 2834 3500 
L 3513 3500 
z
" id="DejaVuSans-78" transform="scale(0.015625)"/>
     </defs>
     <use xlink:href="#DejaVuSans-57"/>
     <use x="92.501953" xlink:href="#DejaVuSans-61"/>
     <use x="153.78125" xlink:href="#DejaVuSans-76"/>
     <use x="212.960938" xlink:href="#DejaVuSans-65"/>
     <use x="274.484375" xlink:href="#DejaVuSans-20"/>
     <use x="306.271484" xlink:href="#DejaVuSans-66"/>
     <use x="341.476562" xlink:href="#DejaVuSans-75"/>
     <use x="404.855469" xlink:href="#DejaVuSans-6e"/>
     <use x="468.234375" xlink:href="#DejaVuSans-63"/>
     <use x="523.214844" xlink:href="#DejaVuSans-74"/>
     <use x="562.423828" xlink:href="#DejaVuSans-69"/>
     <use x="590.207031" xlink:href="#DejaVuSans-6f"/>
     <use x="651.388672" xlink:href="#DejaVuSans-6e"/>
     <use x="714.767578" xlink:href="#DejaVuSans-3a"/>
     <use x="748.458984" xlink:href="#DejaVuSans-20"/>
     <use x="780.246094" xlink:href="#DejaVuSans-69"/>
     <use x="808.029297" xlink:href="#DejaVuSans-6c"/>
     <use x="835.8125" xlink:href="#DejaVuSans-6c"/>
     <use x="863.595703" xlink:href="#DejaVuSans-75"/>
     <use x="926.974609" xlink:href="#DejaVuSans-73"/>
     <use x="979.074219" xlink:href="#DejaVuSans-74"/>
     <use x="1018.283203" xlink:href="#DejaVuSans-72"/>
     <use x="1059.396484" xlink:href="#DejaVuSans-61"/>
     <use x="1120.675781" xlink:href="#DejaVuSans-74"/>
     <use x="1159.884766" xlink:href="#DejaVuSans-69"/>
     <use x="1187.667969" xlink:href="#DejaVuSans-6f"/>
     <use x="1248.849609" xlink:href="#DejaVuSans-6e"/>
     <use x="1312.228516" xlink:href="#DejaVuSans-20"/>
     <use x="1344.015625" xlink:href="#DejaVuSans-6f"/>
     <use x="1405.197266" xlink:href="#DejaVuSans-66"/>
     <use x="1440.402344" xlink:href="#DejaVuSans-20"/>
     <use x="1472.189453" xlink:href="#DejaVuSans-22"/>
     <use x="1518.185547" xlink:href="#DejaVuSans-70"/>
     <use x="1581.662109" xlink:href="#DejaVuSans-61"/>
     <use x="1642.941406" xlink:href="#DejaVuSans-72"/>
     <use x="1684.054688" xlink:href="#DejaVuSans-74"/>
     <use x="1723.263672" xlink:href="#DejaVuSans-69"/>
     <use x="1751.046875" xlink:href="#DejaVuSans-63"/>
     <use x="1806.027344" xlink:href="#DejaVuSans-6c"/>
     <use x="1833.810547" xlink:href="#DejaVuSans-65"/>
     <use x="1895.333984" xlink:href="#DejaVuSans-20"/>
     <use x="1927.121094" xlink:href="#DejaVuSans-69"/>
     <use x="1954.904297" xlink:href="#DejaVuSans-6e"/>
     <use x="2018.283203" xlink:href="#DejaVuSans-20"/>
     <use x="2050.070312" xlink:href="#DejaVuSans-74"/>
     <use x="2089.279297" xlink:href="#DejaVuSans-68"/>
     <use x="2152.658203" xlink:href="#DejaVuSans-65"/>
     <use x="2214.181641" xlink:href="#DejaVuSans-20"/>
     <use x="2245.96875" xlink:href="#DejaVuSans-62"/>
     <use x="2309.445312" xlink:href="#DejaVuSans-6f"/>
     <use x="2367.501953" xlink:href="#DejaVuSans-78"/>
     <use x="2426.681641" xlink:href="#DejaVuSans-22"/>
    </g>
   </g>
  </g>
 </g>
 <defs>
  <clipPath id="pe7fb4cd44d">
   <rect height="326.16" width="223.2" x="36" y="51.84"/>
  </clipPath>
 </defs>
</svg>
