<?xml version="1.0" encoding="utf-8" standalone="no"?>
<!DOCTYPE svg PUBLIC "-//W3C//DTD SVG 1.1//EN"
  "http://www.w3.org/Graphics/SVG/1.1/DTD/svg11.dtd">
<svg height="432pt" version="1.1" viewBox="0 0 288 432" width="288pt" xmlns="http://www.w3.org/2000/svg" xmlns:xlink="http://www.w3.org/1999/xlink">
 <metadata>
  <rdf:RDF xmlns:cc="http://creativecommons.org/ns#" xmlns:dc="http://purl.org/dc/elements/1.1/" xmlns:rdf="http://www.w3.org/1999/02/22-rdf-syntax-ns#">
   <cc:Work>
    <dc:type rdf:resource="http://purl.org/dc/dcmitype/StillImage"/>
    <dc:date>2022-12-10T23:07:18.660462</dc:date>
    <dc:format>image/svg+xml</dc:format>
    <dc:creator>
     <cc:Agent>
      <dc:title>Matplotlib v3.4.3, https://matplotlib.org/</dc:title>
     </cc:Agent>
    </dc:creator>
   </cc:Work>
  </rdf:RDF>
 </metadata>
 <defs>
  <style type="text/css">*{stroke-linecap:butt;stroke-linejoin:round;}</style>
 </defs>
 <g id="figure_1">
  <g id="patch_1">
   <path d="M 0 432 
L 288 432 
L 288 0 
L 0 0 
z
" style="fill:none;"/>
  </g>
  <g id="axes_1">
   <g id="patch_2">
    <path d="M 36 378 
L 259.2 378 
L 259.2 51.84 
L 36 51.84 
z
" style="fill:#ffffff;"/>
   </g>
   <g id="matplotlib.axis_1">
    <g id="xtick_1">
     <g id="line2d_1">
      <defs>
       <path d="M 0 0 
L 0 3.5 
" id="m2a9a5758f9" style="stroke:#000000;stroke-width:0.8;"/>
      </defs>
      <g>
       <use style="stroke:#000000;stroke-width:0.8;" x="46.145455" xlink:href="#m2a9a5758f9" y="378"/>
      </g>
     </g>
     <g id="text_1">
      <!-- 0.0 -->
      <g transform="translate(38.193892 392.598437)scale(0.1 -0.1)">
       <defs>
        <path d="M 2034 4250 
Q 1547 4250 1301 3770 
Q 1056 3291 1056 2328 
Q 1056 1369 1301 889 
Q 1547 409 2034 409 
Q 2525 409 2770 889 
Q 3016 1369 3016 2328 
Q 3016 3291 2770 3770 
Q 2525 4250 2034 4250 
z
M 2034 4750 
Q 2819 4750 3233 4129 
Q 3647 3509 3647 2328 
Q 3647 1150 3233 529 
Q 2819 -91 2034 -91 
Q 1250 -91 836 529 
Q 422 1150 422 2328 
Q 422 3509 836 4129 
Q 1250 4750 2034 4750 
z
" id="DejaVuSans-30" transform="scale(0.015625)"/>
        <path d="M 684 794 
L 1344 794 
L 1344 0 
L 684 0 
L 684 794 
z
" id="DejaVuSans-2e" transform="scale(0.015625)"/>
       </defs>
       <use xlink:href="#DejaVuSans-30"/>
       <use x="63.623047" xlink:href="#DejaVuSans-2e"/>
       <use x="95.410156" xlink:href="#DejaVuSans-30"/>
      </g>
     </g>
    </g>
    <g id="xtick_2">
     <g id="line2d_2">
      <g>
       <use style="stroke:#000000;stroke-width:0.8;" x="86.727273" xlink:href="#m2a9a5758f9" y="378"/>
      </g>
     </g>
     <g id="text_2">
      <!-- 0.2 -->
      <g transform="translate(78.77571 392.598437)scale(0.1 -0.1)">
       <defs>
        <path d="M 1228 531 
L 3431 531 
L 3431 0 
L 469 0 
L 469 531 
Q 828 903 1448 1529 
Q 2069 2156 2228 2338 
Q 2531 2678 2651 2914 
Q 2772 3150 2772 3378 
Q 2772 3750 2511 3984 
Q 2250 4219 1831 4219 
Q 1534 4219 1204 4116 
Q 875 4013 500 3803 
L 500 4441 
Q 881 4594 1212 4672 
Q 1544 4750 1819 4750 
Q 2544 4750 2975 4387 
Q 3406 4025 3406 3419 
Q 3406 3131 3298 2873 
Q 3191 2616 2906 2266 
Q 2828 2175 2409 1742 
Q 1991 1309 1228 531 
z
" id="DejaVuSans-32" transform="scale(0.015625)"/>
       </defs>
       <use xlink:href="#DejaVuSans-30"/>
       <use x="63.623047" xlink:href="#DejaVuSans-2e"/>
       <use x="95.410156" xlink:href="#DejaVuSans-32"/>
      </g>
     </g>
    </g>
    <g id="xtick_3">
     <g id="line2d_3">
      <g>
       <use style="stroke:#000000;stroke-width:0.8;" x="127.309091" xlink:href="#m2a9a5758f9" y="378"/>
      </g>
     </g>
     <g id="text_3">
      <!-- 0.4 -->
      <g transform="translate(119.357528 392.598437)scale(0.1 -0.1)">
       <defs>
        <path d="M 2419 4116 
L 825 1625 
L 2419 1625 
L 2419 4116 
z
M 2253 4666 
L 3047 4666 
L 3047 1625 
L 3713 1625 
L 3713 1100 
L 3047 1100 
L 3047 0 
L 2419 0 
L 2419 1100 
L 313 1100 
L 313 1709 
L 2253 4666 
z
" id="DejaVuSans-34" transform="scale(0.015625)"/>
       </defs>
       <use xlink:href="#DejaVuSans-30"/>
       <use x="63.623047" xlink:href="#DejaVuSans-2e"/>
       <use x="95.410156" xlink:href="#DejaVuSans-34"/>
      </g>
     </g>
    </g>
    <g id="xtick_4">
     <g id="line2d_4">
      <g>
       <use style="stroke:#000000;stroke-width:0.8;" x="167.890909" xlink:href="#m2a9a5758f9" y="378"/>
      </g>
     </g>
     <g id="text_4">
      <!-- 0.6 -->
      <g transform="translate(159.939347 392.598437)scale(0.1 -0.1)">
       <defs>
        <path d="M 2113 2584 
Q 1688 2584 1439 2293 
Q 1191 2003 1191 1497 
Q 1191 994 1439 701 
Q 1688 409 2113 409 
Q 2538 409 2786 701 
Q 3034 994 3034 1497 
Q 3034 2003 2786 2293 
Q 2538 2584 2113 2584 
z
M 3366 4563 
L 3366 3988 
Q 3128 4100 2886 4159 
Q 2644 4219 2406 4219 
Q 1781 4219 1451 3797 
Q 1122 3375 1075 2522 
Q 1259 2794 1537 2939 
Q 1816 3084 2150 3084 
Q 2853 3084 3261 2657 
Q 3669 2231 3669 1497 
Q 3669 778 3244 343 
Q 2819 -91 2113 -91 
Q 1303 -91 875 529 
Q 447 1150 447 2328 
Q 447 3434 972 4092 
Q 1497 4750 2381 4750 
Q 2619 4750 2861 4703 
Q 3103 4656 3366 4563 
z
" id="DejaVuSans-36" transform="scale(0.015625)"/>
       </defs>
       <use xlink:href="#DejaVuSans-30"/>
       <use x="63.623047" xlink:href="#DejaVuSans-2e"/>
       <use x="95.410156" xlink:href="#DejaVuSans-36"/>
      </g>
     </g>
    </g>
    <g id="xtick_5">
     <g id="line2d_5">
      <g>
       <use style="stroke:#000000;stroke-width:0.8;" x="208.472727" xlink:href="#m2a9a5758f9" y="378"/>
      </g>
     </g>
     <g id="text_5">
      <!-- 0.8 -->
      <g transform="translate(200.521165 392.598437)scale(0.1 -0.1)">
       <defs>
        <path d="M 2034 2216 
Q 1584 2216 1326 1975 
Q 1069 1734 1069 1313 
Q 1069 891 1326 650 
Q 1584 409 2034 409 
Q 2484 409 2743 651 
Q 3003 894 3003 1313 
Q 3003 1734 2745 1975 
Q 2488 2216 2034 2216 
z
M 1403 2484 
Q 997 2584 770 2862 
Q 544 3141 544 3541 
Q 544 4100 942 4425 
Q 1341 4750 2034 4750 
Q 2731 4750 3128 4425 
Q 3525 4100 3525 3541 
Q 3525 3141 3298 2862 
Q 3072 2584 2669 2484 
Q 3125 2378 3379 2068 
Q 3634 1759 3634 1313 
Q 3634 634 3220 271 
Q 2806 -91 2034 -91 
Q 1263 -91 848 271 
Q 434 634 434 1313 
Q 434 1759 690 2068 
Q 947 2378 1403 2484 
z
M 1172 3481 
Q 1172 3119 1398 2916 
Q 1625 2713 2034 2713 
Q 2441 2713 2670 2916 
Q 2900 3119 2900 3481 
Q 2900 3844 2670 4047 
Q 2441 4250 2034 4250 
Q 1625 4250 1398 4047 
Q 1172 3844 1172 3481 
z
" id="DejaVuSans-38" transform="scale(0.015625)"/>
       </defs>
       <use xlink:href="#DejaVuSans-30"/>
       <use x="63.623047" xlink:href="#DejaVuSans-2e"/>
       <use x="95.410156" xlink:href="#DejaVuSans-38"/>
      </g>
     </g>
    </g>
    <g id="xtick_6">
     <g id="line2d_6">
      <g>
       <use style="stroke:#000000;stroke-width:0.8;" x="249.054545" xlink:href="#m2a9a5758f9" y="378"/>
      </g>
     </g>
     <g id="text_6">
      <!-- 1.0 -->
      <g transform="translate(241.102983 392.598437)scale(0.1 -0.1)">
       <defs>
        <path d="M 794 531 
L 1825 531 
L 1825 4091 
L 703 3866 
L 703 4441 
L 1819 4666 
L 2450 4666 
L 2450 531 
L 3481 531 
L 3481 0 
L 794 0 
L 794 531 
z
" id="DejaVuSans-31" transform="scale(0.015625)"/>
       </defs>
       <use xlink:href="#DejaVuSans-31"/>
       <use x="63.623047" xlink:href="#DejaVuSans-2e"/>
       <use x="95.410156" xlink:href="#DejaVuSans-30"/>
      </g>
     </g>
    </g>
    <g id="text_7">
     <!-- $x$ -->
     <g transform="translate(144 407.79625)scale(0.12 -0.12)">
      <defs>
       <path d="M 3841 3500 
L 2234 1784 
L 3219 0 
L 2559 0 
L 1819 1388 
L 531 0 
L -166 0 
L 1556 1844 
L 641 3500 
L 1300 3500 
L 1972 2234 
L 3144 3500 
L 3841 3500 
z
" id="DejaVuSans-Oblique-78" transform="scale(0.015625)"/>
      </defs>
      <use transform="translate(0 0.3125)" xlink:href="#DejaVuSans-Oblique-78"/>
     </g>
    </g>
   </g>
   <g id="matplotlib.axis_2">
    <g id="ytick_1">
     <g id="line2d_7">
      <defs>
       <path d="M 0 0 
L -3.5 0 
" id="m8da01aaac8" style="stroke:#000000;stroke-width:0.8;"/>
      </defs>
      <g>
       <use style="stroke:#000000;stroke-width:0.8;" x="36" xlink:href="#m8da01aaac8" y="366.109925"/>
      </g>
     </g>
     <g id="text_8">
      <!-- 0 -->
      <g transform="translate(22.6375 369.909143)scale(0.1 -0.1)">
       <use xlink:href="#DejaVuSans-30"/>
      </g>
     </g>
    </g>
    <g id="ytick_2">
     <g id="line2d_8">
      <g>
       <use style="stroke:#000000;stroke-width:0.8;" x="36" xlink:href="#m8da01aaac8" y="306.627846"/>
      </g>
     </g>
     <g id="text_9">
      <!-- 20 -->
      <g transform="translate(16.275 310.427065)scale(0.1 -0.1)">
       <use xlink:href="#DejaVuSans-32"/>
       <use x="63.623047" xlink:href="#DejaVuSans-30"/>
      </g>
     </g>
    </g>
    <g id="ytick_3">
     <g id="line2d_9">
      <g>
       <use style="stroke:#000000;stroke-width:0.8;" x="36" xlink:href="#m8da01aaac8" y="247.145767"/>
      </g>
     </g>
     <g id="text_10">
      <!-- 40 -->
      <g transform="translate(16.275 250.944986)scale(0.1 -0.1)">
       <use xlink:href="#DejaVuSans-34"/>
       <use x="63.623047" xlink:href="#DejaVuSans-30"/>
      </g>
     </g>
    </g>
    <g id="ytick_4">
     <g id="line2d_10">
      <g>
       <use style="stroke:#000000;stroke-width:0.8;" x="36" xlink:href="#m8da01aaac8" y="187.663689"/>
      </g>
     </g>
     <g id="text_11">
      <!-- 60 -->
      <g transform="translate(16.275 191.462908)scale(0.1 -0.1)">
       <use xlink:href="#DejaVuSans-36"/>
       <use x="63.623047" xlink:href="#DejaVuSans-30"/>
      </g>
     </g>
    </g>
    <g id="ytick_5">
     <g id="line2d_11">
      <g>
       <use style="stroke:#000000;stroke-width:0.8;" x="36" xlink:href="#m8da01aaac8" y="128.18161"/>
      </g>
     </g>
     <g id="text_12">
      <!-- 80 -->
      <g transform="translate(16.275 131.980829)scale(0.1 -0.1)">
       <use xlink:href="#DejaVuSans-38"/>
       <use x="63.623047" xlink:href="#DejaVuSans-30"/>
      </g>
     </g>
    </g>
    <g id="ytick_6">
     <g id="line2d_12">
      <g>
       <use style="stroke:#000000;stroke-width:0.8;" x="36" xlink:href="#m8da01aaac8" y="68.699532"/>
      </g>
     </g>
     <g id="text_13">
      <!-- 100 -->
      <g transform="translate(9.9125 72.498751)scale(0.1 -0.1)">
       <use xlink:href="#DejaVuSans-31"/>
       <use x="63.623047" xlink:href="#DejaVuSans-30"/>
       <use x="127.246094" xlink:href="#DejaVuSans-30"/>
      </g>
     </g>
    </g>
    <g id="text_14">
     <!-- E -->
     <g transform="translate(3.416875 218.71125)rotate(-90)scale(0.12 -0.12)">
      <defs>
       <path d="M 628 4666 
L 3578 4666 
L 3578 4134 
L 1259 4134 
L 1259 2753 
L 3481 2753 
L 3481 2222 
L 1259 2222 
L 1259 531 
L 3634 531 
L 3634 0 
L 628 0 
L 628 4666 
z
" id="DejaVuSans-45" transform="scale(0.015625)"/>
      </defs>
      <use xlink:href="#DejaVuSans-45"/>
     </g>
    </g>
   </g>
   <g id="line2d_13">
    <path clip-path="url(#p16b0529554)" d="M 46.145455 363.174545 
L 55.091346 363.05675 
L 64.240554 362.712545 
L 74.203024 362.112754 
L 86.198652 361.159059 
L 123.405429 358.030032 
L 133.367899 357.520781 
L 142.517107 357.274835 
L 151.462999 357.259418 
L 160.408891 357.467812 
L 169.964729 357.919445 
L 180.537147 358.647648 
L 194.769248 359.871473 
L 218.963819 361.96614 
L 229.739552 362.650821 
L 239.295391 363.035039 
L 248.241283 363.173139 
L 249.054545 363.174545 
L 249.054545 363.174545 
" style="fill:none;stroke:#1f77b4;stroke-linecap:square;stroke-width:1.5;"/>
   </g>
   <g id="line2d_14">
    <path clip-path="url(#p16b0529554)" d="M 46.145455 354.368437 
L 50.6184 354.245558 
L 55.294662 353.886429 
L 60.377555 353.263601 
L 66.477027 352.282181 
L 84.165495 349.288567 
L 89.248388 348.747455 
L 93.924649 348.478175 
L 98.397595 348.447346 
L 102.870541 348.640794 
L 107.546803 349.066689 
L 112.833011 349.778732 
L 119.745746 350.954623 
L 132.757952 353.204948 
L 138.044161 353.865854 
L 142.720423 354.234702 
L 147.193369 354.367734 
L 151.666314 354.275421 
L 156.342576 353.945788 
L 161.222153 353.377343 
L 167.118309 352.458402 
L 187.04325 349.137467 
L 191.922827 348.669124 
L 196.395773 348.455765 
L 200.868719 348.466043 
L 205.341665 348.699179 
L 210.221242 349.186446 
L 215.710767 349.970596 
L 223.436764 351.325926 
L 233.602551 353.084258 
L 239.092075 353.801804 
L 243.768337 354.199459 
L 248.241283 354.362815 
L 249.054545 354.368437 
L 249.054545 354.368437 
" style="fill:none;stroke:#ff7f0e;stroke-linecap:square;stroke-width:1.5;"/>
   </g>
   <g id="line2d_15">
    <path clip-path="url(#p16b0529554)" d="M 46.145455 339.691687 
L 49.19519 339.558245 
L 52.244926 339.199733 
L 55.701293 338.557962 
L 59.970924 337.516265 
L 70.949973 334.70585 
L 74.40634 334.123043 
L 77.456076 333.827384 
L 80.505812 333.761759 
L 83.555547 333.931377 
L 86.605283 334.322769 
L 90.061651 334.994541 
L 94.534596 336.113025 
L 104.090435 338.587144 
L 107.546803 339.220113 
L 110.596539 339.5691 
L 113.646274 339.692155 
L 116.69601 339.579506 
L 119.745746 339.240098 
L 123.202113 338.616032 
L 127.268428 337.641268 
L 139.264055 334.599047 
L 142.720423 334.054483 
L 145.770158 333.798511 
L 148.819894 333.774864 
L 151.86963 333.985421 
L 155.122682 334.448987 
L 158.782365 335.213143 
L 163.865258 336.537686 
L 171.184624 338.438384 
L 174.844307 339.14708 
L 178.097358 339.546942 
L 181.147094 339.690749 
L 184.19683 339.598964 
L 187.246566 339.278874 
L 190.499617 338.714757 
L 194.565932 337.764498 
L 207.781454 334.461009 
L 211.034505 333.992666 
L 214.084241 333.777027 
L 217.133977 333.79542 
L 220.183713 334.046383 
L 223.436764 334.547641 
L 227.096447 335.343417 
L 232.585972 336.798648 
L 238.888759 338.423126 
L 242.548442 339.136261 
L 245.801494 339.541123 
L 248.85123 339.690105 
L 249.054545 339.691687 
L 249.054545 339.691687 
" style="fill:none;stroke:#2ca02c;stroke-linecap:square;stroke-width:1.5;"/>
   </g>
   <g id="line2d_16">
    <path clip-path="url(#p16b0529554)" d="M 46.145455 319.144438 
L 48.381927 319.011407 
L 50.6184 318.663134 
L 53.261505 318.011123 
L 56.514556 316.951438 
L 64.647185 314.172726 
L 67.29029 313.576204 
L 69.526763 313.284671 
L 71.763236 313.212812 
L 73.999709 313.366084 
L 76.439497 313.775931 
L 79.082602 314.462893 
L 82.538969 315.621042 
L 89.451703 318.011123 
L 92.094808 318.663134 
L 94.534596 319.032668 
L 96.771069 319.145376 
L 99.007542 319.032668 
L 101.244015 318.703104 
L 103.683804 318.126069 
L 106.73354 317.16508 
L 116.086063 314.013527 
L 118.525852 313.507644 
L 120.762325 313.254879 
L 122.998798 313.224049 
L 125.235271 313.417498 
L 127.675059 313.866622 
L 130.318164 314.586802 
L 133.977847 315.842244 
L 140.077318 317.951895 
L 142.720423 318.621593 
L 145.160211 319.011407 
L 147.396684 319.144438 
L 149.633157 319.052126 
L 151.86963 318.741479 
L 154.309419 318.181713 
L 157.359155 317.235106 
L 167.321625 313.914171 
L 169.761414 313.445828 
L 171.997887 313.232468 
L 174.23436 313.242747 
L 176.470833 313.475883 
L 178.910621 313.96315 
L 181.757041 314.780097 
L 185.823356 316.214517 
L 190.702933 317.891546 
L 193.549353 318.621593 
L 195.989142 319.011407 
L 198.225615 319.144438 
L 200.462088 319.052126 
L 202.698561 318.741479 
L 205.138349 318.181713 
L 208.188085 317.235106 
L 218.150556 313.914171 
L 220.590344 313.445828 
L 222.826817 313.232468 
L 225.06329 313.242747 
L 227.299763 313.475883 
L 229.739552 313.96315 
L 232.585972 314.780097 
L 236.652286 316.214517 
L 241.531864 317.891546 
L 244.378284 318.621593 
L 246.818073 319.011407 
L 249.054545 319.144438 
L 249.054545 319.144438 
" style="fill:none;stroke:#d62728;stroke-linecap:square;stroke-width:1.5;"/>
   </g>
   <g id="line2d_17">
    <path clip-path="url(#p16b0529554)" d="M 46.145455 292.726896 
L 47.975296 292.583088 
L 49.805138 292.215108 
L 51.838295 291.579408 
L 54.481399 290.498354 
L 60.784187 287.797326 
L 62.817344 287.205387 
L 64.647185 286.885297 
L 66.477027 286.793512 
L 68.306868 286.937319 
L 70.13671 287.305299 
L 72.169867 287.941 
L 74.812971 289.022053 
L 81.115759 291.723081 
L 83.148916 292.315021 
L 84.978758 292.63511 
L 86.808599 292.726896 
L 88.638441 292.583088 
L 90.468282 292.215108 
L 92.501439 291.579408 
L 95.144544 290.498354 
L 101.447331 287.797326 
L 103.480488 287.205387 
L 105.31033 286.885297 
L 107.140171 286.793512 
L 108.970013 286.937319 
L 110.799854 287.305299 
L 112.833011 287.941 
L 115.476116 289.022053 
L 121.778903 291.723081 
L 123.81206 292.315021 
L 125.641902 292.63511 
L 127.471743 292.726896 
L 129.301585 292.583088 
L 131.131426 292.215108 
L 133.164584 291.579408 
L 135.807688 290.498354 
L 142.110475 287.797326 
L 144.143633 287.205387 
L 145.973474 286.885297 
L 147.803316 286.793512 
L 149.633157 286.937319 
L 151.462999 287.305299 
L 153.496156 287.941 
L 156.13926 289.022053 
L 162.442048 291.723081 
L 164.475205 292.315021 
L 166.305046 292.63511 
L 168.134888 292.726896 
L 169.964729 292.583088 
L 171.794571 292.215108 
L 173.827728 291.579408 
L 176.470833 290.498354 
L 182.77362 287.797326 
L 184.806777 287.205387 
L 186.636619 286.885297 
L 188.46646 286.793512 
L 190.296302 286.937319 
L 192.126143 287.305299 
L 194.1593 287.941 
L 196.802405 289.022053 
L 203.105192 291.723081 
L 205.138349 292.315021 
L 206.968191 292.63511 
L 208.798032 292.726896 
L 210.627874 292.583088 
L 212.457715 292.215108 
L 214.490873 291.579408 
L 217.133977 290.498354 
L 223.436764 287.797326 
L 225.469922 287.205387 
L 227.299763 286.885297 
L 229.129605 286.793512 
L 230.959446 286.937319 
L 232.789288 287.305299 
L 234.822445 287.941 
L 237.465549 289.022053 
L 243.768337 291.723081 
L 245.801494 292.315021 
L 247.631335 292.63511 
L 249.054545 292.726896 
L 249.054545 292.726896 
" style="fill:none;stroke:#9467bd;stroke-linecap:square;stroke-width:1.5;"/>
   </g>
   <g id="line2d_18">
    <path clip-path="url(#p16b0529554)" d="M 46.145455 260.439319 
L 47.568665 260.307459 
L 49.19519 259.917645 
L 51.025032 259.21791 
L 53.261505 258.102541 
L 58.141082 255.581297 
L 59.970924 254.927997 
L 61.597449 254.589315 
L 63.02066 254.506051 
L 64.44387 254.628228 
L 66.070395 255.007932 
L 67.900237 255.698595 
L 70.13671 256.8076 
L 75.219603 259.422121 
L 77.049444 260.056113 
L 78.67597 260.373956 
L 80.09918 260.437679 
L 81.52239 260.296156 
L 83.148916 259.896294 
L 84.978758 259.187598 
L 87.418546 257.956004 
L 91.891492 255.639367 
L 93.721334 254.967173 
L 95.347859 254.607867 
L 96.771069 254.505114 
L 98.194279 254.607867 
L 99.820805 254.967173 
L 101.447331 255.552707 
L 103.480488 256.52066 
L 109.57996 259.611261 
L 111.206486 260.126333 
L 112.833011 260.40191 
L 114.256222 260.426442 
L 115.679432 260.246506 
L 117.305957 259.807099 
L 119.135799 259.063689 
L 121.575588 257.808247 
L 125.641902 255.698595 
L 127.471743 255.007932 
L 129.098269 254.628228 
L 130.521479 254.506051 
L 131.944689 254.589315 
L 133.571215 254.927997 
L 135.197741 255.496443 
L 137.230898 256.450317 
L 143.737001 259.712008 
L 145.363527 260.189851 
L 146.990053 260.422466 
L 148.413263 260.407745 
L 149.836473 260.189851 
L 151.462999 259.712008 
L 153.29284 258.935763 
L 156.13926 257.435973 
L 159.392312 255.758945 
L 161.222153 255.050248 
L 162.848679 254.650386 
L 164.271889 254.508863 
L 165.695099 254.572586 
L 167.321625 254.890429 
L 168.948151 255.441428 
L 170.981308 256.38062 
L 177.690727 259.73632 
L 179.317253 260.204664 
L 180.943778 260.426442 
L 182.366989 260.40191 
L 183.790199 260.174609 
L 185.416724 259.687342 
L 187.246566 258.903192 
L 190.092986 257.398681 
L 193.346038 255.728632 
L 195.175879 255.028897 
L 196.802405 254.639083 
L 198.225615 254.507223 
L 199.648825 254.580722 
L 201.275351 254.909011 
L 202.901876 255.468777 
L 204.935034 256.415385 
L 211.441137 259.687342 
L 213.067663 260.174609 
L 214.694188 260.418023 
L 216.117398 260.413116 
L 217.540608 260.204664 
L 219.167134 259.73632 
L 220.996976 258.968104 
L 223.64008 257.585141 
L 227.096447 255.789528 
L 228.926289 255.071982 
L 230.552815 254.662134 
L 231.976025 254.510971 
L 233.399235 254.564907 
L 234.822445 254.820209 
L 236.448971 255.335281 
L 238.482128 256.243339 
L 242.141811 258.211422 
L 244.5816 259.393835 
L 246.411441 260.037532 
L 248.037967 260.36582 
L 249.054545 260.439319 
L 249.054545 260.439319 
" style="fill:none;stroke:#8c564b;stroke-linecap:square;stroke-width:1.5;"/>
   </g>
   <g id="line2d_19">
    <path clip-path="url(#p16b0529554)" d="M 46.145455 222.282027 
L 47.365349 222.145333 
L 48.788559 221.739764 
L 50.415085 221.000484 
L 52.448242 219.799473 
L 56.311241 217.468208 
L 57.937766 216.78111 
L 59.360976 216.432784 
L 60.580871 216.34952 
L 61.800765 216.471696 
L 63.223975 216.861835 
L 64.647185 217.482836 
L 66.680343 218.651069 
L 70.949973 221.223047 
L 72.576498 221.890343 
L 73.999709 222.217426 
L 75.219603 222.281149 
L 76.439497 222.139626 
L 77.862707 221.728945 
L 79.489233 220.985092 
L 81.52239 219.781062 
L 85.385389 217.453653 
L 87.011915 216.771466 
L 88.435125 216.42843 
L 89.655019 216.350047 
L 90.874913 216.477068 
L 92.298124 216.872366 
L 93.721334 217.497535 
L 95.754491 218.669257 
L 100.024121 221.237304 
L 101.650647 221.899583 
L 103.073857 222.221323 
L 104.293751 222.280153 
L 105.513645 222.133807 
L 106.936856 221.71803 
L 108.563381 220.969635 
L 110.596539 219.762633 
L 114.256222 217.542064 
L 115.882747 216.830825 
L 117.305957 216.456256 
L 118.525852 216.348641 
L 119.745746 216.446527 
L 121.168956 216.810642 
L 122.592166 217.410433 
L 124.422008 218.435074 
L 129.504901 221.441753 
L 130.928111 221.969802 
L 132.351321 222.248355 
L 133.571215 222.267982 
L 134.791109 222.083274 
L 136.21432 221.627339 
L 137.840845 220.843678 
L 140.077318 219.484496 
L 143.33037 217.52715 
L 144.956896 216.820684 
L 146.380106 216.451335 
L 147.6 216.348583 
L 148.819894 216.451335 
L 150.243104 216.820684 
L 151.666314 217.424765 
L 153.496156 218.452899 
L 158.375733 221.362139 
L 159.798943 221.917757 
L 161.222153 222.228772 
L 162.442048 222.277811 
L 163.661942 222.121836 
L 165.085152 221.695917 
L 166.711678 220.938525 
L 168.948151 219.596069 
L 172.404518 217.512307 
L 174.031044 216.810642 
L 175.454254 216.446527 
L 176.674148 216.348641 
L 177.894043 216.456256 
L 179.317253 216.830825 
L 180.740463 217.439172 
L 182.570304 218.470758 
L 187.449882 221.375613 
L 188.873092 221.92669 
L 190.296302 222.232324 
L 191.516196 222.276465 
L 192.73609 222.115685 
L 194.1593 221.68472 
L 195.785826 220.922873 
L 198.022299 219.577496 
L 201.275351 217.602413 
L 202.901876 216.872366 
L 204.325087 216.477068 
L 205.544981 216.350047 
L 206.764875 216.42843 
L 207.98477 216.706791 
L 209.40798 217.257868 
L 211.237821 218.24145 
L 216.930661 221.567678 
L 218.353871 222.048133 
L 219.573766 222.256586 
L 220.79366 222.261493 
L 222.013554 222.062515 
L 223.436764 221.591812 
L 225.06329 220.795432 
L 227.503079 219.298091 
L 230.349499 217.587223 
L 231.976025 216.861835 
L 233.399235 216.471696 
L 234.619129 216.34952 
L 235.839024 216.432784 
L 237.058918 216.715724 
L 238.482128 217.271342 
L 240.311969 218.258854 
L 246.00481 221.57979 
L 247.42802 222.055378 
L 248.647914 222.259098 
L 249.054545 222.282027 
L 249.054545 222.282027 
" style="fill:none;stroke:#e377c2;stroke-linecap:square;stroke-width:1.5;"/>
   </g>
   <g id="line2d_20">
    <path clip-path="url(#p16b0529554)" d="M 46.145455 178.255397 
L 47.365349 178.077298 
L 48.585243 177.647677 
L 50.008453 176.881407 
L 52.04161 175.47736 
L 54.888031 173.516311 
L 56.311241 172.805072 
L 57.531135 172.435537 
L 58.751029 172.323767 
L 59.970924 172.47985 
L 61.190818 172.889697 
L 62.614028 173.638093 
L 64.44387 174.882004 
L 67.696921 177.124893 
L 69.120131 177.816874 
L 70.340026 178.165896 
L 71.55992 178.255397 
L 72.779814 178.077298 
L 73.999709 177.647677 
L 75.422919 176.881407 
L 77.456076 175.47736 
L 80.302496 173.516311 
L 81.725706 172.805072 
L 82.9456 172.435537 
L 84.165495 172.323767 
L 85.385389 172.47985 
L 86.605283 172.889697 
L 88.028493 173.638093 
L 89.858335 174.882004 
L 93.111386 177.124893 
L 94.534596 177.816874 
L 95.754491 178.165896 
L 96.974385 178.255397 
L 98.194279 178.077298 
L 99.414174 177.647677 
L 100.837384 176.881407 
L 102.870541 175.47736 
L 105.716961 173.516311 
L 107.140171 172.805072 
L 108.360066 172.435537 
L 109.57996 172.323767 
L 110.799854 172.47985 
L 112.019749 172.889697 
L 113.442959 173.638093 
L 115.2728 174.882004 
L 118.525852 177.124893 
L 119.949062 177.816874 
L 121.168956 178.165896 
L 122.38885 178.255397 
L 123.608745 178.077298 
L 124.828639 177.647677 
L 126.251849 176.881407 
L 128.285006 175.47736 
L 131.131426 173.516311 
L 132.554637 172.805072 
L 133.774531 172.435537 
L 134.994425 172.323767 
L 136.21432 172.47985 
L 137.434214 172.889697 
L 138.857424 173.638093 
L 140.687265 174.882004 
L 143.940317 177.124893 
L 145.363527 177.816874 
L 146.583421 178.165896 
L 147.803316 178.255397 
L 149.02321 178.077298 
L 150.243104 177.647677 
L 151.666314 176.881407 
L 153.699472 175.47736 
L 156.545892 173.516311 
L 157.969102 172.805072 
L 159.188996 172.435537 
L 160.408891 172.323767 
L 161.628785 172.47985 
L 162.848679 172.889697 
L 164.271889 173.638093 
L 166.101731 174.882004 
L 169.354782 177.124893 
L 170.777992 177.816874 
L 171.997887 178.165896 
L 173.217781 178.255397 
L 174.437675 178.077298 
L 175.65757 177.647677 
L 177.08078 176.881407 
L 179.113937 175.47736 
L 181.960357 173.516311 
L 183.383567 172.805072 
L 184.603461 172.435537 
L 185.823356 172.323767 
L 187.04325 172.47985 
L 188.263144 172.889697 
L 189.686355 173.638093 
L 191.516196 174.882004 
L 194.769248 177.124893 
L 196.192458 177.816874 
L 197.412352 178.165896 
L 198.632246 178.255397 
L 199.852141 178.077298 
L 201.072035 177.647677 
L 202.495245 176.881407 
L 204.528402 175.47736 
L 207.374822 173.516311 
L 208.798032 172.805072 
L 210.017927 172.435537 
L 211.237821 172.323767 
L 212.457715 172.47985 
L 213.67761 172.889697 
L 215.10082 173.638093 
L 216.930661 174.882004 
L 220.183713 177.124893 
L 221.606923 177.816874 
L 222.826817 178.165896 
L 224.046712 178.255397 
L 225.266606 178.077298 
L 226.4865 177.647677 
L 227.90971 176.881407 
L 229.942868 175.47736 
L 232.789288 173.516311 
L 234.212498 172.805072 
L 235.432392 172.435537 
L 236.652286 172.323767 
L 237.872181 172.47985 
L 239.092075 172.889697 
L 240.515285 173.638093 
L 242.345127 174.882004 
L 245.598178 177.124893 
L 247.021388 177.816874 
L 248.241283 178.165896 
L 249.054545 178.255397 
L 249.054545 178.255397 
" style="fill:none;stroke:#7f7f7f;stroke-linecap:square;stroke-width:1.5;"/>
   </g>
   <g id="line2d_21">
    <path clip-path="url(#p16b0529554)" d="M 46.145455 128.359863 
L 47.162033 128.195394 
L 48.178612 127.808654 
L 49.398506 127.095518 
L 51.025032 125.860771 
L 54.074768 123.504473 
L 55.294662 122.851173 
L 56.311241 122.526234 
L 57.327819 122.429227 
L 58.344398 122.567854 
L 59.360976 122.931108 
L 60.580871 123.621771 
L 62.207397 124.840271 
L 65.257132 127.215654 
L 66.477027 127.892505 
L 67.493605 128.241493 
L 68.510184 128.364549 
L 69.526763 128.251899 
L 70.543341 127.912491 
L 71.763236 127.244981 
L 73.389761 126.043932 
L 76.642813 123.51888 
L 77.862707 122.860817 
L 78.879286 122.531042 
L 79.895864 122.428817 
L 80.912443 122.562259 
L 81.929022 122.920771 
L 83.148916 123.606858 
L 84.775442 124.821963 
L 88.028493 127.331194 
L 89.248388 127.970052 
L 90.264966 128.280406 
L 91.281545 128.361737 
L 92.298124 128.207587 
L 93.314702 127.830196 
L 94.534596 127.125966 
L 96.161122 125.897573 
L 99.210858 123.533361 
L 100.430752 122.870561 
L 101.447331 122.535963 
L 102.46391 122.428524 
L 103.480488 122.556775 
L 104.497067 122.910532 
L 105.716961 123.592015 
L 107.343487 124.803677 
L 110.596539 127.317013 
L 111.816433 127.96071 
L 112.833011 128.275938 
L 113.84959 128.362498 
L 114.866169 128.213516 
L 115.882747 127.840824 
L 117.102642 127.141088 
L 118.729167 125.915945 
L 121.778903 123.547915 
L 122.998798 122.880406 
L 124.015376 122.540997 
L 125.031955 122.428348 
L 126.048533 122.551403 
L 127.065112 122.900391 
L 128.285006 123.577243 
L 129.911532 124.785415 
L 133.164584 127.302756 
L 134.384478 127.951267 
L 135.401057 128.271357 
L 136.417635 128.363143 
L 137.434214 128.219335 
L 138.450792 127.851355 
L 139.670687 127.156142 
L 141.297213 125.934296 
L 144.346948 123.562543 
L 145.566843 122.890349 
L 146.583421 122.546144 
L 147.6 122.428289 
L 148.616579 122.546144 
L 149.633157 122.890349 
L 150.853052 123.562543 
L 152.479577 124.767178 
L 155.732629 127.288424 
L 156.952523 127.941724 
L 157.969102 128.266662 
L 158.98568 128.36367 
L 160.002259 128.225042 
L 161.018838 127.861789 
L 162.238732 127.171125 
L 163.865258 125.952626 
L 166.914994 123.577243 
L 168.134888 122.900391 
L 169.151467 122.551403 
L 170.168045 122.428348 
L 171.184624 122.540997 
L 172.201202 122.880406 
L 173.421097 123.547915 
L 175.047623 124.748965 
L 178.300674 127.274017 
L 179.520568 127.932079 
L 180.537147 128.261854 
L 181.553726 128.36408 
L 182.570304 128.230638 
L 183.586883 127.872126 
L 184.806777 127.186039 
L 186.433303 125.970934 
L 189.686355 123.461702 
L 190.906249 122.822845 
L 191.922827 122.512491 
L 192.939406 122.43116 
L 193.955985 122.58531 
L 194.972563 122.9627 
L 196.192458 123.66693 
L 197.818983 124.895324 
L 200.868719 127.259536 
L 202.088614 127.922335 
L 203.105192 128.256933 
L 204.121771 128.364373 
L 205.138349 128.236122 
L 206.154928 127.882365 
L 207.374822 127.200882 
L 209.001348 125.989219 
L 212.2544 123.475883 
L 213.474294 122.832186 
L 214.490873 122.516958 
L 215.507451 122.430398 
L 216.52403 122.57938 
L 217.540608 122.952073 
L 218.760503 123.651808 
L 220.387029 124.876952 
L 223.436764 127.244981 
L 224.656659 127.912491 
L 225.673237 128.251899 
L 226.689816 128.364549 
L 227.706395 128.241493 
L 228.722973 127.892505 
L 229.942868 127.215654 
L 231.569393 126.007481 
L 234.822445 123.49014 
L 236.042339 122.841629 
L 237.058918 122.52154 
L 238.075496 122.429754 
L 239.092075 122.573561 
L 240.108654 122.941542 
L 241.328548 123.636755 
L 242.955074 124.858601 
L 246.00481 127.230354 
L 247.224704 127.902548 
L 248.241283 128.246753 
L 249.054545 128.359863 
L 249.054545 128.359863 
" style="fill:none;stroke:#bcbd22;stroke-linecap:square;stroke-width:1.5;"/>
   </g>
   <g id="line2d_22">
    <path clip-path="url(#p16b0529554)" d="M 46.145455 72.595917 
L 46.958717 72.456502 
L 47.975296 72.034906 
L 49.19519 71.224034 
L 50.821716 69.819986 
L 53.058189 67.888974 
L 54.278083 67.127514 
L 55.294662 66.758705 
L 56.107925 66.665455 
L 56.921188 66.758705 
L 57.937766 67.127514 
L 58.954345 67.741638 
L 60.377555 68.895463 
L 63.630607 71.665459 
L 64.647185 72.234632 
L 65.663764 72.5492 
L 66.477027 72.595917 
L 67.29029 72.456502 
L 68.306868 72.034906 
L 69.526763 71.224034 
L 71.153288 69.819986 
L 73.389761 67.888974 
L 74.609656 67.127514 
L 75.626234 66.758705 
L 76.439497 66.665455 
L 77.25276 66.758705 
L 78.269339 67.127514 
L 79.285917 67.741638 
L 80.709127 68.895463 
L 83.962179 71.665459 
L 84.978758 72.234632 
L 85.995336 72.5492 
L 86.808599 72.595917 
L 87.621862 72.456502 
L 88.638441 72.034906 
L 89.858335 71.224034 
L 91.484861 69.819986 
L 93.721334 67.888974 
L 94.941228 67.127514 
L 95.957807 66.758705 
L 96.771069 66.665455 
L 97.584332 66.758705 
L 98.600911 67.127514 
L 99.61749 67.741638 
L 101.0407 68.895463 
L 104.293751 71.665459 
L 105.31033 72.234632 
L 106.326908 72.5492 
L 107.140171 72.595917 
L 107.953434 72.456502 
L 108.970013 72.034906 
L 110.189907 71.224034 
L 111.816433 69.819986 
L 114.052906 67.888974 
L 115.2728 67.127514 
L 116.289379 66.758705 
L 117.102642 66.665455 
L 117.915905 66.758705 
L 118.932483 67.127514 
L 119.949062 67.741638 
L 121.372272 68.895463 
L 124.625323 71.665459 
L 125.641902 72.234632 
L 126.658481 72.5492 
L 127.471743 72.595917 
L 128.285006 72.456502 
L 129.301585 72.034906 
L 130.521479 71.224034 
L 132.148005 69.819986 
L 134.384478 67.888974 
L 135.604372 67.127514 
L 136.620951 66.758705 
L 137.434214 66.665455 
L 138.247477 66.758705 
L 139.264055 67.127514 
L 140.280634 67.741638 
L 141.703844 68.895463 
L 144.956896 71.665459 
L 145.973474 72.234632 
L 146.990053 72.5492 
L 147.803316 72.595917 
L 148.616579 72.456502 
L 149.633157 72.034906 
L 150.853052 71.224034 
L 152.479577 69.819986 
L 154.71605 67.888974 
L 155.935945 67.127514 
L 156.952523 66.758705 
L 157.765786 66.665455 
L 158.579049 66.758705 
L 159.595628 67.127514 
L 160.612206 67.741638 
L 162.035416 68.895463 
L 165.288468 71.665459 
L 166.305046 72.234632 
L 167.321625 72.5492 
L 168.134888 72.595917 
L 168.948151 72.456502 
L 169.964729 72.034906 
L 171.184624 71.224034 
L 172.81115 69.819986 
L 175.047623 67.888974 
L 176.267517 67.127514 
L 177.284095 66.758705 
L 178.097358 66.665455 
L 178.910621 66.758705 
L 179.9272 67.127514 
L 180.943778 67.741638 
L 182.366989 68.895463 
L 185.62004 71.665459 
L 186.636619 72.234632 
L 187.653197 72.5492 
L 188.46646 72.595917 
L 189.279723 72.456502 
L 190.296302 72.034906 
L 191.516196 71.224034 
L 193.142722 69.819986 
L 195.379195 67.888974 
L 196.599089 67.127514 
L 197.615668 66.758705 
L 198.428931 66.665455 
L 199.242193 66.758705 
L 200.258772 67.127514 
L 201.275351 67.741638 
L 202.698561 68.895463 
L 205.951612 71.665459 
L 206.968191 72.234632 
L 207.98477 72.5492 
L 208.798032 72.595917 
L 209.611295 72.456502 
L 210.627874 72.034906 
L 211.847768 71.224034 
L 213.474294 69.819986 
L 215.710767 67.888974 
L 216.930661 67.127514 
L 217.94724 66.758705 
L 218.760503 66.665455 
L 219.573766 66.758705 
L 220.590344 67.127514 
L 221.606923 67.741638 
L 223.030133 68.895463 
L 226.283185 71.665459 
L 227.299763 72.234632 
L 228.316342 72.5492 
L 229.129605 72.595917 
L 229.942868 72.456502 
L 230.959446 72.034906 
L 232.17934 71.224034 
L 233.805866 69.819986 
L 236.042339 67.888974 
L 237.262234 67.127514 
L 238.278812 66.758705 
L 239.092075 66.665455 
L 239.905338 66.758705 
L 240.921917 67.127514 
L 241.938495 67.741638 
L 243.361705 68.895463 
L 246.614757 71.665459 
L 247.631335 72.234632 
L 248.647914 72.5492 
L 249.054545 72.595917 
L 249.054545 72.595917 
" style="fill:none;stroke:#17becf;stroke-linecap:square;stroke-width:1.5;"/>
   </g>
   <g id="patch_3">
    <path d="M 36 378 
L 36 51.84 
" style="fill:none;stroke:#000000;stroke-linecap:square;stroke-linejoin:miter;stroke-width:0.8;"/>
   </g>
   <g id="patch_4">
    <path d="M 259.2 378 
L 259.2 51.84 
" style="fill:none;stroke:#000000;stroke-linecap:square;stroke-linejoin:miter;stroke-width:0.8;"/>
   </g>
   <g id="patch_5">
    <path d="M 36 378 
L 259.2 378 
" style="fill:none;stroke:#000000;stroke-linecap:square;stroke-linejoin:miter;stroke-width:0.8;"/>
   </g>
   <g id="patch_6">
    <path d="M 36 51.84 
L 259.2 51.84 
" style="fill:none;stroke:#000000;stroke-linecap:square;stroke-linejoin:miter;stroke-width:0.8;"/>
   </g>
   <g id="text_15">
    <!-- Probability density: illustration of "particle in the box" -->
    <g transform="translate(-13.058437 45.84)scale(0.12 -0.12)">
     <defs>
      <path d="M 1259 4147 
L 1259 2394 
L 2053 2394 
Q 2494 2394 2734 2622 
Q 2975 2850 2975 3272 
Q 2975 3691 2734 3919 
Q 2494 4147 2053 4147 
L 1259 4147 
z
M 628 4666 
L 2053 4666 
Q 2838 4666 3239 4311 
Q 3641 3956 3641 3272 
Q 3641 2581 3239 2228 
Q 2838 1875 2053 1875 
L 1259 1875 
L 1259 0 
L 628 0 
L 628 4666 
z
" id="DejaVuSans-50" transform="scale(0.015625)"/>
      <path d="M 2631 2963 
Q 2534 3019 2420 3045 
Q 2306 3072 2169 3072 
Q 1681 3072 1420 2755 
Q 1159 2438 1159 1844 
L 1159 0 
L 581 0 
L 581 3500 
L 1159 3500 
L 1159 2956 
Q 1341 3275 1631 3429 
Q 1922 3584 2338 3584 
Q 2397 3584 2469 3576 
Q 2541 3569 2628 3553 
L 2631 2963 
z
" id="DejaVuSans-72" transform="scale(0.015625)"/>
      <path d="M 1959 3097 
Q 1497 3097 1228 2736 
Q 959 2375 959 1747 
Q 959 1119 1226 758 
Q 1494 397 1959 397 
Q 2419 397 2687 759 
Q 2956 1122 2956 1747 
Q 2956 2369 2687 2733 
Q 2419 3097 1959 3097 
z
M 1959 3584 
Q 2709 3584 3137 3096 
Q 3566 2609 3566 1747 
Q 3566 888 3137 398 
Q 2709 -91 1959 -91 
Q 1206 -91 779 398 
Q 353 888 353 1747 
Q 353 2609 779 3096 
Q 1206 3584 1959 3584 
z
" id="DejaVuSans-6f" transform="scale(0.015625)"/>
      <path d="M 3116 1747 
Q 3116 2381 2855 2742 
Q 2594 3103 2138 3103 
Q 1681 3103 1420 2742 
Q 1159 2381 1159 1747 
Q 1159 1113 1420 752 
Q 1681 391 2138 391 
Q 2594 391 2855 752 
Q 3116 1113 3116 1747 
z
M 1159 2969 
Q 1341 3281 1617 3432 
Q 1894 3584 2278 3584 
Q 2916 3584 3314 3078 
Q 3713 2572 3713 1747 
Q 3713 922 3314 415 
Q 2916 -91 2278 -91 
Q 1894 -91 1617 61 
Q 1341 213 1159 525 
L 1159 0 
L 581 0 
L 581 4863 
L 1159 4863 
L 1159 2969 
z
" id="DejaVuSans-62" transform="scale(0.015625)"/>
      <path d="M 2194 1759 
Q 1497 1759 1228 1600 
Q 959 1441 959 1056 
Q 959 750 1161 570 
Q 1363 391 1709 391 
Q 2188 391 2477 730 
Q 2766 1069 2766 1631 
L 2766 1759 
L 2194 1759 
z
M 3341 1997 
L 3341 0 
L 2766 0 
L 2766 531 
Q 2569 213 2275 61 
Q 1981 -91 1556 -91 
Q 1019 -91 701 211 
Q 384 513 384 1019 
Q 384 1609 779 1909 
Q 1175 2209 1959 2209 
L 2766 2209 
L 2766 2266 
Q 2766 2663 2505 2880 
Q 2244 3097 1772 3097 
Q 1472 3097 1187 3025 
Q 903 2953 641 2809 
L 641 3341 
Q 956 3463 1253 3523 
Q 1550 3584 1831 3584 
Q 2591 3584 2966 3190 
Q 3341 2797 3341 1997 
z
" id="DejaVuSans-61" transform="scale(0.015625)"/>
      <path d="M 603 3500 
L 1178 3500 
L 1178 0 
L 603 0 
L 603 3500 
z
M 603 4863 
L 1178 4863 
L 1178 4134 
L 603 4134 
L 603 4863 
z
" id="DejaVuSans-69" transform="scale(0.015625)"/>
      <path d="M 603 4863 
L 1178 4863 
L 1178 0 
L 603 0 
L 603 4863 
z
" id="DejaVuSans-6c" transform="scale(0.015625)"/>
      <path d="M 1172 4494 
L 1172 3500 
L 2356 3500 
L 2356 3053 
L 1172 3053 
L 1172 1153 
Q 1172 725 1289 603 
Q 1406 481 1766 481 
L 2356 481 
L 2356 0 
L 1766 0 
Q 1100 0 847 248 
Q 594 497 594 1153 
L 594 3053 
L 172 3053 
L 172 3500 
L 594 3500 
L 594 4494 
L 1172 4494 
z
" id="DejaVuSans-74" transform="scale(0.015625)"/>
      <path d="M 2059 -325 
Q 1816 -950 1584 -1140 
Q 1353 -1331 966 -1331 
L 506 -1331 
L 506 -850 
L 844 -850 
Q 1081 -850 1212 -737 
Q 1344 -625 1503 -206 
L 1606 56 
L 191 3500 
L 800 3500 
L 1894 763 
L 2988 3500 
L 3597 3500 
L 2059 -325 
z
" id="DejaVuSans-79" transform="scale(0.015625)"/>
      <path id="DejaVuSans-20" transform="scale(0.015625)"/>
      <path d="M 2906 2969 
L 2906 4863 
L 3481 4863 
L 3481 0 
L 2906 0 
L 2906 525 
Q 2725 213 2448 61 
Q 2172 -91 1784 -91 
Q 1150 -91 751 415 
Q 353 922 353 1747 
Q 353 2572 751 3078 
Q 1150 3584 1784 3584 
Q 2172 3584 2448 3432 
Q 2725 3281 2906 2969 
z
M 947 1747 
Q 947 1113 1208 752 
Q 1469 391 1925 391 
Q 2381 391 2643 752 
Q 2906 1113 2906 1747 
Q 2906 2381 2643 2742 
Q 2381 3103 1925 3103 
Q 1469 3103 1208 2742 
Q 947 2381 947 1747 
z
" id="DejaVuSans-64" transform="scale(0.015625)"/>
      <path d="M 3597 1894 
L 3597 1613 
L 953 1613 
Q 991 1019 1311 708 
Q 1631 397 2203 397 
Q 2534 397 2845 478 
Q 3156 559 3463 722 
L 3463 178 
Q 3153 47 2828 -22 
Q 2503 -91 2169 -91 
Q 1331 -91 842 396 
Q 353 884 353 1716 
Q 353 2575 817 3079 
Q 1281 3584 2069 3584 
Q 2775 3584 3186 3129 
Q 3597 2675 3597 1894 
z
M 3022 2063 
Q 3016 2534 2758 2815 
Q 2500 3097 2075 3097 
Q 1594 3097 1305 2825 
Q 1016 2553 972 2059 
L 3022 2063 
z
" id="DejaVuSans-65" transform="scale(0.015625)"/>
      <path d="M 3513 2113 
L 3513 0 
L 2938 0 
L 2938 2094 
Q 2938 2591 2744 2837 
Q 2550 3084 2163 3084 
Q 1697 3084 1428 2787 
Q 1159 2491 1159 1978 
L 1159 0 
L 581 0 
L 581 3500 
L 1159 3500 
L 1159 2956 
Q 1366 3272 1645 3428 
Q 1925 3584 2291 3584 
Q 2894 3584 3203 3211 
Q 3513 2838 3513 2113 
z
" id="DejaVuSans-6e" transform="scale(0.015625)"/>
      <path d="M 2834 3397 
L 2834 2853 
Q 2591 2978 2328 3040 
Q 2066 3103 1784 3103 
Q 1356 3103 1142 2972 
Q 928 2841 928 2578 
Q 928 2378 1081 2264 
Q 1234 2150 1697 2047 
L 1894 2003 
Q 2506 1872 2764 1633 
Q 3022 1394 3022 966 
Q 3022 478 2636 193 
Q 2250 -91 1575 -91 
Q 1294 -91 989 -36 
Q 684 19 347 128 
L 347 722 
Q 666 556 975 473 
Q 1284 391 1588 391 
Q 1994 391 2212 530 
Q 2431 669 2431 922 
Q 2431 1156 2273 1281 
Q 2116 1406 1581 1522 
L 1381 1569 
Q 847 1681 609 1914 
Q 372 2147 372 2553 
Q 372 3047 722 3315 
Q 1072 3584 1716 3584 
Q 2034 3584 2315 3537 
Q 2597 3491 2834 3397 
z
" id="DejaVuSans-73" transform="scale(0.015625)"/>
      <path d="M 750 794 
L 1409 794 
L 1409 0 
L 750 0 
L 750 794 
z
M 750 3309 
L 1409 3309 
L 1409 2516 
L 750 2516 
L 750 3309 
z
" id="DejaVuSans-3a" transform="scale(0.015625)"/>
      <path d="M 544 1381 
L 544 3500 
L 1119 3500 
L 1119 1403 
Q 1119 906 1312 657 
Q 1506 409 1894 409 
Q 2359 409 2629 706 
Q 2900 1003 2900 1516 
L 2900 3500 
L 3475 3500 
L 3475 0 
L 2900 0 
L 2900 538 
Q 2691 219 2414 64 
Q 2138 -91 1772 -91 
Q 1169 -91 856 284 
Q 544 659 544 1381 
z
M 1991 3584 
L 1991 3584 
z
" id="DejaVuSans-75" transform="scale(0.015625)"/>
      <path d="M 2375 4863 
L 2375 4384 
L 1825 4384 
Q 1516 4384 1395 4259 
Q 1275 4134 1275 3809 
L 1275 3500 
L 2222 3500 
L 2222 3053 
L 1275 3053 
L 1275 0 
L 697 0 
L 697 3053 
L 147 3053 
L 147 3500 
L 697 3500 
L 697 3744 
Q 697 4328 969 4595 
Q 1241 4863 1831 4863 
L 2375 4863 
z
" id="DejaVuSans-66" transform="scale(0.015625)"/>
      <path d="M 1147 4666 
L 1147 2931 
L 616 2931 
L 616 4666 
L 1147 4666 
z
M 2328 4666 
L 2328 2931 
L 1797 2931 
L 1797 4666 
L 2328 4666 
z
" id="DejaVuSans-22" transform="scale(0.015625)"/>
      <path d="M 1159 525 
L 1159 -1331 
L 581 -1331 
L 581 3500 
L 1159 3500 
L 1159 2969 
Q 1341 3281 1617 3432 
Q 1894 3584 2278 3584 
Q 2916 3584 3314 3078 
Q 3713 2572 3713 1747 
Q 3713 922 3314 415 
Q 2916 -91 2278 -91 
Q 1894 -91 1617 61 
Q 1341 213 1159 525 
z
M 3116 1747 
Q 3116 2381 2855 2742 
Q 2594 3103 2138 3103 
Q 1681 3103 1420 2742 
Q 1159 2381 1159 1747 
Q 1159 1113 1420 752 
Q 1681 391 2138 391 
Q 2594 391 2855 752 
Q 3116 1113 3116 1747 
z
" id="DejaVuSans-70" transform="scale(0.015625)"/>
      <path d="M 3122 3366 
L 3122 2828 
Q 2878 2963 2633 3030 
Q 2388 3097 2138 3097 
Q 1578 3097 1268 2742 
Q 959 2388 959 1747 
Q 959 1106 1268 751 
Q 1578 397 2138 397 
Q 2388 397 2633 464 
Q 2878 531 3122 666 
L 3122 134 
Q 2881 22 2623 -34 
Q 2366 -91 2075 -91 
Q 1284 -91 818 406 
Q 353 903 353 1747 
Q 353 2603 823 3093 
Q 1294 3584 2113 3584 
Q 2378 3584 2631 3529 
Q 2884 3475 3122 3366 
z
" id="DejaVuSans-63" transform="scale(0.015625)"/>
      <path d="M 3513 2113 
L 3513 0 
L 2938 0 
L 2938 2094 
Q 2938 2591 2744 2837 
Q 2550 3084 2163 3084 
Q 1697 3084 1428 2787 
Q 1159 2491 1159 1978 
L 1159 0 
L 581 0 
L 581 4863 
L 1159 4863 
L 1159 2956 
Q 1366 3272 1645 3428 
Q 1925 3584 2291 3584 
Q 2894 3584 3203 3211 
Q 3513 2838 3513 2113 
z
" id="DejaVuSans-68" transform="scale(0.015625)"/>
      <path d="M 3513 3500 
L 2247 1797 
L 3578 0 
L 2900 0 
L 1881 1375 
L 863 0 
L 184 0 
L 1544 1831 
L 300 3500 
L 978 3500 
L 1906 2253 
L 2834 3500 
L 3513 3500 
z
" id="DejaVuSans-78" transform="scale(0.015625)"/>
     </defs>
     <use xlink:href="#DejaVuSans-50"/>
     <use x="58.552734" xlink:href="#DejaVuSans-72"/>
     <use x="97.416016" xlink:href="#DejaVuSans-6f"/>
     <use x="158.597656" xlink:href="#DejaVuSans-62"/>
     <use x="222.074219" xlink:href="#DejaVuSans-61"/>
     <use x="283.353516" xlink:href="#DejaVuSans-62"/>
     <use x="346.830078" xlink:href="#DejaVuSans-69"/>
     <use x="374.613281" xlink:href="#DejaVuSans-6c"/>
     <use x="402.396484" xlink:href="#DejaVuSans-69"/>
     <use x="430.179688" xlink:href="#DejaVuSans-74"/>
     <use x="469.388672" xlink:href="#DejaVuSans-79"/>
     <use x="528.568359" xlink:href="#DejaVuSans-20"/>
     <use x="560.355469" xlink:href="#DejaVuSans-64"/>
     <use x="623.832031" xlink:href="#DejaVuSans-65"/>
     <use x="685.355469" xlink:href="#DejaVuSans-6e"/>
     <use x="748.734375" xlink:href="#DejaVuSans-73"/>
     <use x="800.833984" xlink:href="#DejaVuSans-69"/>
     <use x="828.617188" xlink:href="#DejaVuSans-74"/>
     <use x="867.826172" xlink:href="#DejaVuSans-79"/>
     <use x="919.755859" xlink:href="#DejaVuSans-3a"/>
     <use x="953.447266" xlink:href="#DejaVuSans-20"/>
     <use x="985.234375" xlink:href="#DejaVuSans-69"/>
     <use x="1013.017578" xlink:href="#DejaVuSans-6c"/>
     <use x="1040.800781" xlink:href="#DejaVuSans-6c"/>
     <use x="1068.583984" xlink:href="#DejaVuSans-75"/>
     <use x="1131.962891" xlink:href="#DejaVuSans-73"/>
     <use x="1184.0625" xlink:href="#DejaVuSans-74"/>
     <use x="1223.271484" xlink:href="#DejaVuSans-72"/>
     <use x="1264.384766" xlink:href="#DejaVuSans-61"/>
     <use x="1325.664062" xlink:href="#DejaVuSans-74"/>
     <use x="1364.873047" xlink:href="#DejaVuSans-69"/>
     <use x="1392.65625" xlink:href="#DejaVuSans-6f"/>
     <use x="1453.837891" xlink:href="#DejaVuSans-6e"/>
     <use x="1517.216797" xlink:href="#DejaVuSans-20"/>
     <use x="1549.003906" xlink:href="#DejaVuSans-6f"/>
     <use x="1610.185547" xlink:href="#DejaVuSans-66"/>
     <use x="1645.390625" xlink:href="#DejaVuSans-20"/>
     <use x="1677.177734" xlink:href="#DejaVuSans-22"/>
     <use x="1723.173828" xlink:href="#DejaVuSans-70"/>
     <use x="1786.650391" xlink:href="#DejaVuSans-61"/>
     <use x="1847.929688" xlink:href="#DejaVuSans-72"/>
     <use x="1889.042969" xlink:href="#DejaVuSans-74"/>
     <use x="1928.251953" xlink:href="#DejaVuSans-69"/>
     <use x="1956.035156" xlink:href="#DejaVuSans-63"/>
     <use x="2011.015625" xlink:href="#DejaVuSans-6c"/>
     <use x="2038.798828" xlink:href="#DejaVuSans-65"/>
     <use x="2100.322266" xlink:href="#DejaVuSans-20"/>
     <use x="2132.109375" xlink:href="#DejaVuSans-69"/>
     <use x="2159.892578" xlink:href="#DejaVuSans-6e"/>
     <use x="2223.271484" xlink:href="#DejaVuSans-20"/>
     <use x="2255.058594" xlink:href="#DejaVuSans-74"/>
     <use x="2294.267578" xlink:href="#DejaVuSans-68"/>
     <use x="2357.646484" xlink:href="#DejaVuSans-65"/>
     <use x="2419.169922" xlink:href="#DejaVuSans-20"/>
     <use x="2450.957031" xlink:href="#DejaVuSans-62"/>
     <use x="2514.433594" xlink:href="#DejaVuSans-6f"/>
     <use x="2572.490234" xlink:href="#DejaVuSans-78"/>
     <use x="2631.669922" xlink:href="#DejaVuSans-22"/>
    </g>
   </g>
  </g>
 </g>
 <defs>
  <clipPath id="p16b0529554">
   <rect height="326.16" width="223.2" x="36" y="51.84"/>
  </clipPath>
 </defs>
</svg>
